<?xml version="1.0" standalone="no"?>
<!DOCTYPE svg PUBLIC "-//W3C//DTD SVG 20010904//EN"
 "http://www.w3.org/TR/2001/REC-SVG-20010904/DTD/svg10.dtd">
<svg version="1.0" xmlns="http://www.w3.org/2000/svg"
 width="1707.000000pt" height="1707.000000pt" viewBox="0 0 1707.000000 1707.000000"
 preserveAspectRatio="xMidYMid meet">
<metadata>
Created by potrace 1.14, written by Peter Selinger 2001-2017
</metadata>
<g transform="translate(0.000000,1707.000000) scale(0.100000,-0.100000)"
fill="#000000" stroke="none">
<path d="M0 9276 c0 -4287 3 -7801 6 -7810 8 -20 24 -11 24 15 0 10 5 19 11
19 17 0 34 22 60 78 13 28 27 52 31 52 5 0 8 11 8 24 0 14 7 31 15 39 8 8 11
17 8 21 -3 3 6 21 21 40 14 19 26 39 26 43 0 5 13 22 28 39 15 16 33 41 40 56
6 16 16 28 22 28 6 0 8 5 5 11 -4 6 7 28 24 49 17 21 31 45 31 53 0 7 9 23 20
35 11 12 20 24 20 28 0 4 8 14 18 23 19 16 36 50 34 64 -1 4 4 7 12 7 8 0 19
14 25 31 6 17 22 44 36 61 14 16 25 36 25 45 0 8 14 31 30 50 17 18 30 43 30
53 0 11 7 20 15 20 8 0 15 8 15 18 0 11 9 27 20 37 11 10 20 26 20 37 0 10 10
28 22 40 12 12 22 29 23 37 1 9 27 56 59 104 31 48 55 91 52 95 -3 5 6 16 20
26 13 11 24 25 24 33 0 7 7 16 15 19 8 4 12 10 9 15 -3 5 0 9 5 9 6 0 11 9 11
20 0 13 10 24 25 30 31 12 33 20 2 12 -19 -4 -17 -1 11 24 17 15 32 36 32 46
0 10 7 18 15 18 8 0 15 3 15 8 0 4 17 25 38 47 21 22 41 48 45 58 4 9 12 16
18 15 6 -2 17 13 24 32 10 29 13 32 17 15 5 -18 6 -18 7 3 0 12 5 22 10 22 5
0 12 10 14 23 l4 22 2 -22 c0 -13 6 -23 12 -23 6 0 9 8 6 19 -2 11 3 24 14 32
11 8 19 26 19 42 0 25 2 28 15 17 12 -10 15 -10 15 2 0 8 11 25 25 38 13 12
29 38 35 56 6 18 17 35 25 38 8 3 15 12 15 21 0 9 9 15 25 15 17 0 25 5 25 18
0 10 14 26 30 36 17 9 28 21 25 26 -3 5 3 15 15 22 11 7 20 18 20 24 0 7 7 14
15 18 8 3 12 12 9 19 -3 9 3 16 14 19 21 6 35 54 18 63 -6 3 -1 3 11 1 20 -4
22 -1 17 22 -6 26 -6 26 9 7 l16 -20 7 20 c4 11 16 33 27 48 10 15 16 35 13
43 -3 8 -1 12 4 9 13 -8 52 33 44 47 -4 6 -3 8 3 5 21 -13 48 37 49 93 2 122
3 130 20 130 9 0 18 9 21 20 3 11 9 20 14 20 5 0 9 14 9 30 0 32 9 37 28 18 9
-9 12 -4 12 25 0 20 5 37 10 37 6 0 10 -4 10 -10 0 -5 5 -10 10 -10 6 0 10 16
10 35 0 19 5 35 10 35 6 0 10 9 10 21 0 12 8 23 20 26 11 3 20 13 20 23 0 9
15 33 33 52 43 48 67 77 67 84 0 3 11 15 25 28 14 13 25 29 25 36 0 7 8 10 20
7 11 -3 20 -1 20 4 0 5 15 25 34 44 19 18 32 36 29 39 -3 3 18 28 48 56 40 37
60 49 75 45 16 -3 23 1 27 15 3 11 9 20 14 19 12 -3 45 12 65 29 10 8 18 11
18 7 0 -4 8 -1 17 7 10 8 30 18 44 22 15 3 40 20 58 38 17 17 34 29 37 25 8
-7 40 33 37 45 -2 4 4 5 13 1 13 -5 15 -1 10 18 -3 13 -3 18 0 12 8 -17 24
-17 24 0 0 8 11 20 25 27 14 7 25 17 25 22 0 4 7 8 15 8 8 0 15 6 15 13 0 6
19 23 41 37 22 14 37 30 35 37 -3 7 -2 12 2 11 15 -3 63 23 68 37 4 8 12 15
19 15 7 0 15 9 18 20 3 11 11 20 19 20 13 0 35 35 60 93 7 15 18 27 25 27 21
0 17 86 -4 94 -15 6 -15 8 -3 16 12 8 12 10 -2 15 -9 4 -15 18 -15 33 0 16 -9
32 -22 40 -22 15 -29 42 -11 42 6 0 10 10 10 21 0 18 -2 19 -15 9 -13 -10 -18
-11 -28 -1 -9 10 -6 18 16 37 17 14 22 24 14 24 -28 0 -37 24 -25 64 7 21 18
40 25 43 7 3 13 16 13 30 0 23 2 24 40 18 39 -7 41 -5 51 24 12 35 24 40 32
12 3 -13 14 -18 33 -18 18 0 33 -8 42 -22 16 -23 38 -28 45 -8 3 6 6 -7 6 -30
1 -29 8 -50 21 -63 11 -11 20 -30 20 -41 0 -16 5 -20 19 -16 20 5 20 4 0 -31
-23 -44 -24 -52 -5 -52 14 0 30 -29 21 -38 -3 -3 -5 0 -5 6 0 21 -16 13 -29
-14 -19 -44 -1 -54 95 -54 46 0 84 -4 84 -9 0 -5 9 -7 21 -4 13 4 18 11 14 21
-4 11 -2 12 7 5 7 -5 21 -13 30 -16 13 -5 15 -2 11 11 -6 14 -4 15 9 4 12 -10
18 -10 23 -1 6 8 10 7 16 -2 8 -12 11 -11 19 1 9 13 10 13 10 0 0 -12 2 -12 9
-1 6 9 10 10 16 2 4 -8 11 -9 18 -3 7 6 25 10 41 10 15 0 31 3 35 8 3 5 64 10
135 12 71 1 135 7 142 13 8 6 14 7 18 0 4 -6 43 -9 89 -8 45 0 88 -2 95 -7 6
-4 16 -5 21 -2 5 3 22 -1 39 -9 21 -11 37 -13 55 -6 18 7 30 6 43 -4 11 -8 27
-15 37 -15 9 0 17 -4 17 -10 0 -5 9 -10 20 -10 18 0 25 -10 21 -32 -2 -12 17
-10 24 2 8 14 25 13 25 -1 0 -6 16 -29 35 -50 19 -22 35 -43 35 -48 0 -5 8
-11 18 -13 15 -4 19 -17 20 -69 1 -35 6 -65 11 -67 13 -4 -20 -42 -36 -42 -7
0 -14 -10 -14 -22 -1 -17 -2 -19 -6 -5 -6 22 -32 22 -40 1 -5 -14 -8 -15 -17
-3 -15 20 -96 22 -96 3 0 -8 5 -14 11 -14 5 0 7 -4 4 -10 -9 -15 -92 -12 -98
3 -3 7 -6 5 -6 -5 -1 -22 -21 -24 -21 -3 0 8 -5 15 -11 15 -6 0 -9 -9 -6 -20
5 -18 1 -20 -39 -16 -25 2 -47 0 -49 -5 -3 -4 9 -9 27 -11 17 -2 33 -10 35
-18 4 -13 3 -13 -6 0 -8 12 -17 12 -51 3 -39 -10 -41 -9 -37 9 4 12 1 18 -6
15 -7 -2 -13 -13 -15 -25 -4 -28 -22 -29 -22 -2 0 11 -4 20 -10 20 -5 0 -10
-8 -10 -17 0 -12 -3 -14 -8 -7 -12 20 -75 -13 -93 -49 -11 -22 -24 -32 -40
-33 -57 -3 -61 -4 -55 -19 4 -10 -10 -22 -48 -40 -59 -28 -76 -31 -76 -12 0 9
-3 8 -9 -2 -5 -7 -13 -11 -18 -8 -5 3 -15 2 -23 -4 -10 -6 -11 -9 -2 -9 6 0
12 -4 12 -10 0 -5 -7 -10 -15 -10 -8 0 -15 -4 -15 -10 0 -5 5 -10 10 -10 6 0
10 -4 10 -10 0 -5 -9 -10 -21 -10 -16 0 -19 4 -14 21 5 15 4 19 -4 15 -6 -4
-11 -17 -12 -29 0 -12 -3 -16 -6 -9 -2 6 -9 12 -15 12 -6 0 -8 -6 -5 -14 7
-17 -17 -40 -35 -33 -15 5 -61 -40 -53 -53 3 -4 -2 -14 -11 -21 -12 -10 -17
-10 -23 0 -6 9 -10 6 -16 -11 -6 -19 -8 -20 -12 -5 -6 21 -23 23 -23 2 0 -18
-16 -20 -23 -2 -3 6 -6 -6 -6 -28 -1 -35 -7 -44 -40 -67 -22 -16 -43 -28 -48
-29 -4 0 -21 -16 -37 -36 -24 -28 -27 -36 -16 -43 8 -5 11 -12 7 -16 -4 -4
-14 1 -22 12 -15 20 -18 16 -19 -36 -1 -19 -6 -24 -20 -22 -32 6 -64 -17 -59
-42 4 -20 4 -20 -11 -2 -14 18 -16 17 -32 -17 -10 -20 -21 -34 -26 -31 -4 3
-5 -2 -2 -10 3 -9 2 -16 -2 -16 -5 0 -20 -9 -34 -20 -21 -17 -23 -21 -10 -31
12 -8 10 -9 -7 -4 -17 5 -23 2 -23 -9 0 -9 -9 -16 -20 -16 -28 0 -26 -30 3
-31 12 -1 3 -5 -20 -11 -30 -6 -43 -14 -43 -26 0 -10 -10 -22 -22 -27 -13 -6
-24 -17 -24 -25 -1 -8 -2 -20 -3 -27 0 -6 -11 -15 -23 -18 -23 -7 -88 -71 -88
-87 0 -4 -10 -8 -22 -8 -23 -1 -23 -1 2 -15 25 -14 25 -14 3 -15 -14 0 -23 -6
-23 -15 0 -8 -9 -15 -20 -15 -15 0 -20 -7 -20 -26 0 -14 -4 -23 -10 -19 -5 3
-10 1 -10 -4 0 -6 -8 -11 -17 -12 -11 0 -13 -3 -5 -6 6 -2 12 -11 12 -19 0
-16 -21 -19 -36 -4 -6 6 -14 3 -22 -10 -7 -12 -8 -20 -2 -20 5 0 10 5 10 11 0
5 5 7 12 3 8 -5 5 -13 -10 -25 -12 -9 -22 -22 -22 -28 0 -6 -4 -11 -10 -11 -5
0 -10 5 -10 10 0 22 -17 8 -28 -23 -7 -19 -23 -40 -37 -47 -27 -14 -33 -35
-12 -44 6 -3 -1 -4 -17 -1 -23 5 -27 3 -23 -9 4 -9 1 -16 -6 -16 -7 0 -17 -10
-22 -22 -6 -13 -20 -27 -32 -33 -14 -6 -23 -19 -23 -32 0 -15 -5 -21 -14 -17
-9 3 -17 -3 -21 -15 -3 -12 -11 -21 -16 -21 -5 0 -9 -11 -9 -25 0 -18 -11 -32
-40 -50 -43 -27 -60 -31 -60 -14 0 5 -5 7 -10 4 -6 -3 -10 -15 -10 -26 0 -11
-6 -22 -14 -25 -10 -4 -13 -16 -10 -42 5 -35 5 -36 -10 -18 -16 20 -16 20 -17
0 0 -18 -1 -18 -8 0 -5 14 -10 6 -20 -35 -11 -52 -49 -109 -71 -109 -13 0 -13
-17 0 -25 20 -12 10 -27 -14 -21 -29 7 -43 -9 -26 -29 10 -12 10 -18 0 -30
-18 -22 -28 -18 -33 13 l-4 27 -2 -28 c-1 -20 -7 -31 -21 -34 -13 -3 -20 -14
-20 -29 0 -28 -15 -32 -28 -8 -7 13 -11 14 -17 3 -5 -7 -4 -14 3 -17 7 -2 12
-12 12 -22 0 -10 10 -26 22 -36 20 -14 20 -15 3 -9 -23 8 -28 9 -72 7 -22 -1
-33 -7 -33 -17 0 -8 -7 -15 -15 -15 -8 0 -15 -4 -15 -10 0 -5 7 -10 15 -10 8
0 15 -4 15 -10 0 -5 -7 -10 -15 -10 -12 0 -13 -4 -5 -19 5 -11 10 -22 10 -25
0 -13 -24 -5 -36 11 -13 17 -15 16 -35 -9 -11 -16 -30 -28 -41 -28 -13 0 -18
-5 -15 -14 3 -8 -1 -17 -9 -20 -8 -3 -14 -12 -14 -20 0 -9 -12 -18 -27 -22
-54 -11 -58 -18 -14 -23 25 -3 46 -12 47 -19 1 -7 0 -8 -3 -2 -2 5 -22 10 -43
10 -37 0 -40 -2 -51 -43 -7 -23 -21 -53 -31 -66 -10 -13 -18 -28 -18 -32 0
-14 28 -11 33 4 2 6 8 9 12 5 9 -8 -18 -38 -34 -38 -6 0 -11 5 -11 10 0 6 -10
10 -22 10 l-21 0 21 -19 c23 -19 29 -41 12 -41 -5 0 -10 -5 -10 -11 0 -6 10
-8 23 -5 12 3 16 3 9 0 -14 -7 -16 -44 -2 -44 6 0 10 -11 10 -24 0 -13 6 -26
13 -29 7 -3 5 -7 -8 -12 -51 -18 -51 -18 -30 -23 37 -8 40 -22 4 -22 -33 -1
-33 -1 -14 -16 15 -12 16 -18 7 -21 -7 -3 -18 -16 -23 -30 -7 -18 -15 -24 -28
-20 -23 6 -53 -12 -33 -20 6 -2 12 -11 12 -19 0 -17 -20 -19 -20 -1 -1 17 -50
-41 -50 -59 0 -8 -4 -14 -10 -14 -5 0 -10 5 -10 12 0 19 -29 -25 -30 -44 0
-11 -8 -18 -19 -18 -11 0 -21 -8 -23 -17 -2 -10 -10 -18 -18 -19 -23 -1 -80
-27 -80 -36 0 -5 12 -6 28 -3 15 3 21 2 12 -2 -40 -21 -100 -64 -100 -73 0 -6
-9 -10 -20 -10 -22 0 -27 -16 -7 -23 6 -2 8 -8 4 -13 -4 -5 -12 -2 -18 6 -8
13 -12 12 -25 -5 -8 -11 -25 -20 -37 -20 -15 0 -22 -6 -22 -20 0 -14 -8 -21
-27 -23 -16 -2 -28 -7 -28 -13 0 -5 9 -8 19 -6 11 1 20 -2 20 -8 0 -5 -10 -10
-22 -10 -31 0 -129 -75 -122 -94 4 -11 -2 -12 -27 -7 -18 3 -28 3 -21 -2 17
-11 -9 -43 -26 -32 -8 4 -10 13 -7 19 4 6 1 11 -8 11 -10 0 -13 -6 -9 -16 3
-8 -3 -25 -15 -37 -11 -12 -24 -34 -27 -49 -4 -16 -11 -28 -16 -28 -14 0 -11
28 3 33 7 2 10 8 6 12 -8 9 -38 -18 -38 -35 0 -6 -7 -18 -15 -27 -14 -14 -15
-13 -10 13 l6 29 -18 -27 c-12 -20 -26 -28 -46 -28 -16 0 -27 -5 -26 -13 4
-33 -2 -47 -21 -47 -11 0 -20 -5 -20 -11 0 -6 -7 -9 -15 -5 -20 7 -45 -3 -45
-19 0 -7 -19 -25 -42 -40 -24 -16 -51 -39 -62 -53 -10 -13 -29 -28 -42 -32
-13 -5 -24 -16 -24 -25 0 -8 -7 -15 -15 -15 -8 0 -15 5 -15 10 0 6 -10 10 -22
9 -13 0 -17 -3 -10 -6 17 -7 15 -23 -3 -23 -8 0 -19 -9 -25 -21 -6 -11 -19
-19 -29 -17 -10 2 -19 -1 -20 -7 -5 -21 -24 -35 -47 -35 -13 0 -24 -6 -24 -13
0 -20 -33 -47 -58 -47 -12 0 -22 -4 -22 -10 0 -5 -6 -10 -14 -10 -7 0 -25 -11
-40 -25 l-26 -24 0 -536 0 -535 8535 0 8535 0 0 2099 c0 1991 -1 2100 -17
2104 -17 4 -17 5 0 6 21 1 24 41 2 41 -9 0 -12 -6 -9 -15 4 -8 1 -15 -6 -15
-8 0 -9 -10 -5 -29 3 -17 2 -32 -4 -36 -6 -3 -11 -15 -11 -26 0 -10 -6 -19
-12 -19 -9 0 -12 -16 -11 -50 1 -42 -1 -50 -16 -50 -9 0 -28 -14 -41 -32 -23
-31 -23 -31 -1 -25 11 3 21 1 21 -4 0 -5 -8 -9 -17 -9 -10 -1 -29 -10 -43 -21
-24 -20 -24 -21 -5 -35 15 -12 16 -14 3 -14 -9 0 -18 3 -20 8 -1 4 -19 4 -38
1 -19 -4 -27 -7 -17 -8 9 0 17 -4 17 -9 0 -15 -32 -52 -40 -47 -5 3 -21 -10
-35 -30 -17 -21 -41 -39 -64 -45 -52 -15 -86 -36 -72 -44 16 -10 13 -46 -4
-46 -8 0 -15 5 -15 10 0 6 -5 10 -11 10 -6 0 -9 -9 -6 -20 3 -13 -2 -28 -16
-40 -23 -22 -33 -25 -42 -10 -3 6 -10 10 -16 10 -5 0 -9 -4 -9 -10 0 -5 7 -10
15 -10 8 0 15 -6 15 -14 0 -8 3 -16 7 -19 5 -2 2 -2 -5 0 -8 1 -24 0 -36 -3
-18 -4 -22 -11 -18 -29 2 -13 -1 -31 -7 -42 -10 -17 -10 -16 -11 5 0 12 -5 22
-11 22 -7 0 -9 -10 -7 -25 6 -27 -1 -32 -20 -13 -9 9 -12 7 -12 -10 0 -13 -6
-22 -15 -22 -14 0 -14 -3 0 -30 9 -17 11 -30 5 -30 -5 0 -10 3 -10 8 0 4 -12
12 -26 19 -24 11 -26 10 -21 -9 7 -26 -18 -56 -27 -33 -3 8 -16 15 -28 14 -23
0 -23 0 2 -12 24 -11 24 -11 -15 -15 -41 -4 -58 -17 -50 -39 3 -9 -5 -11 -25
-6 -19 3 -30 1 -30 -5 0 -15 -65 -32 -124 -32 -39 0 -47 -3 -42 -15 7 -18 1
-19 -27 -3 -12 7 -53 14 -92 15 -38 1 -80 2 -92 2 -13 1 -24 10 -28 22 -6 17
-9 19 -16 8 -6 -10 -20 -1 -56 38 -38 41 -52 49 -65 42 -19 -11 -28 -1 -39 45
l-7 31 -1 -35 -2 -35 -14 25 c-8 14 -14 33 -15 43 0 24 -20 22 -20 -3 0 -17
-3 -18 -26 -10 -14 6 -30 7 -36 4 -6 -4 -6 2 1 14 15 28 14 37 -4 22 -11 -9
-20 -8 -42 8 -34 24 -108 38 -118 23 -8 -14 -45 -14 -45 -1 0 6 -4 10 -10 10
-5 0 -10 -8 -10 -19 0 -10 -17 -36 -37 -58 -74 -78 -94 -107 -95 -134 -1 -19
-8 -30 -22 -34 -20 -7 -20 -7 4 -15 24 -8 24 -8 3 -9 -23 -1 -33 -21 -12 -21
8 0 7 -5 -2 -16 -7 -9 -14 -26 -14 -37 -4 -51 -18 -107 -28 -107 -7 0 -7 -4 1
-12 9 -9 6 -19 -13 -44 -14 -18 -25 -39 -25 -46 0 -13 -44 -66 -115 -140 -20
-21 -34 -42 -30 -47 10 -17 -13 -22 -28 -6 -13 13 -15 12 -20 -5 -3 -11 -12
-20 -21 -20 -9 0 -16 -4 -16 -9 0 -16 -61 -41 -85 -35 -13 3 -26 1 -30 -5 -10
-17 -74 -41 -90 -35 -9 4 -15 0 -15 -10 0 -19 -5 -20 -30 -6 -13 7 -21 7 -25
0 -3 -6 -17 -7 -30 -4 -13 3 -33 0 -45 -6 -18 -9 -24 -9 -30 0 -6 9 -9 8 -13
-6 -4 -16 -5 -16 -6 3 -1 22 -21 44 -21 23 0 -7 -6 -10 -12 -7 -7 2 -17 -2
-23 -9 -5 -7 -32 -16 -60 -18 -79 -8 -156 -24 -169 -35 -7 -6 -22 -8 -34 -4
-16 4 -22 1 -22 -12 0 -11 -7 -16 -22 -15 -43 4 -58 0 -58 -14 0 -15 -27 -29
-40 -21 -4 3 -10 -1 -13 -9 -3 -8 -19 -17 -36 -21 -17 -4 -31 -11 -31 -16 0
-5 -6 -9 -14 -9 -7 0 -25 -11 -40 -25 -15 -14 -31 -25 -36 -25 -5 0 -17 -11
-25 -24 -9 -13 -27 -27 -40 -30 -13 -3 -26 -15 -30 -26 -3 -10 -15 -22 -26
-25 -10 -4 -19 -11 -19 -16 0 -5 -6 -9 -12 -9 -15 0 -117 -107 -110 -115 3 -2
-7 -9 -22 -14 -14 -6 -26 -15 -26 -20 0 -5 -9 -12 -19 -16 -12 -4 -18 -12 -14
-21 3 -7 0 -14 -6 -14 -6 0 -11 -7 -11 -15 0 -9 -7 -18 -15 -21 -8 -4 -15 -12
-15 -20 0 -8 -6 -14 -14 -14 -8 0 -20 -13 -28 -30 -7 -16 -19 -30 -27 -30 -9
0 -11 -7 -8 -21 3 -12 3 -18 0 -15 -3 3 -14 -5 -23 -17 -18 -21 -18 -22 3 -29
l22 -6 -22 -1 c-13 -1 -23 -5 -23 -10 0 -5 -13 -23 -29 -40 -16 -17 -25 -31
-20 -31 5 0 9 -8 9 -17 0 -9 -3 -13 -7 -9 -5 4 -15 -16 -25 -46 -9 -30 -18
-46 -21 -38 -25 74 -177 938 -177 1008 0 6 6 12 13 12 6 0 19 15 27 33 8 17
21 33 28 33 25 3 27 5 13 13 -12 8 -11 13 10 30 13 11 29 20 35 21 15 0 25 26
18 45 -4 9 0 15 7 15 8 1 52 42 99 92 47 50 117 123 157 161 88 84 117 132
142 234 10 43 24 91 31 108 6 16 16 65 21 109 6 44 14 85 18 91 5 5 7 20 5 33
-2 12 0 22 5 22 5 0 13 9 16 20 4 11 11 18 16 15 5 -4 9 3 9 14 0 11 4 23 10
26 5 3 10 17 10 31 0 13 5 24 10 24 6 0 10 4 10 10 0 5 11 20 25 34 14 14 25
34 25 46 0 11 7 23 16 27 9 3 14 13 11 24 -3 12 0 19 9 19 8 0 14 4 14 8 0 5
13 29 30 53 16 24 30 52 30 62 0 9 7 17 15 17 8 0 15 4 15 9 0 5 14 24 32 42
18 19 32 39 33 44 0 6 10 14 22 20 13 5 29 23 38 40 11 24 15 26 15 10 1 -19
1 -19 14 -2 7 9 19 17 25 17 7 0 9 5 6 10 -8 14 14 42 27 34 5 -3 12 3 14 14
3 10 21 26 40 35 19 9 34 23 34 32 0 8 4 15 9 15 5 0 40 25 78 56 37 31 89 67
115 80 26 13 49 28 52 33 4 5 23 15 44 21 56 17 116 43 123 54 4 5 16 6 28 3
12 -3 21 -2 21 3 0 4 7 10 14 13 11 4 13 1 9 -11 -5 -14 -4 -15 8 -6 8 6 28
14 44 18 23 5 27 4 15 -4 -11 -8 -4 -10 28 -5 26 4 42 3 42 -3 0 -6 -6 -12
-12 -15 -7 -2 16 -3 52 -2 36 1 77 -2 92 -6 18 -5 28 -4 28 3 0 5 15 1 34 -10
29 -17 47 -20 125 -16 77 4 91 2 91 -11 0 -18 16 -20 24 -2 5 9 7 9 12 0 8
-19 24 -16 25 5 0 10 3 12 6 5 2 -7 13 -13 24 -13 10 0 19 -7 19 -15 0 -17 16
-20 25 -5 4 6 15 6 31 0 33 -13 64 -13 64 0 0 6 -10 11 -22 11 -17 1 -18 3 -6
6 9 2 26 -1 37 -6 21 -12 25 -9 74 49 22 25 30 30 41 21 10 -8 16 -9 21 -1 3
5 0 10 -7 10 -8 0 -6 5 5 11 9 5 17 17 17 24 0 8 8 15 18 15 9 0 30 14 46 30
16 17 40 30 53 30 12 0 23 4 23 9 0 14 57 69 79 76 12 4 21 15 22 28 0 12 3
16 6 9 3 -8 11 -5 25 10 18 21 19 21 13 3 -4 -13 4 -9 25 15 18 19 36 34 41
32 5 -1 12 5 15 13 4 8 12 15 20 15 7 0 21 11 30 25 9 14 27 28 40 31 13 3 24
10 24 14 0 4 14 13 30 20 18 8 30 20 30 31 0 21 20 27 20 7 0 -7 14 2 31 21
25 26 33 31 40 20 6 -10 9 -11 9 -1 0 6 9 12 20 12 11 0 28 9 37 20 10 11 25
20 35 20 9 0 20 5 23 10 3 6 1 10 -5 10 -6 0 -8 5 -5 10 5 8 11 8 20 0 8 -7
20 -7 36 -1 14 6 18 10 9 11 -8 1 -4 6 10 11 20 8 22 12 10 19 -11 7 0 10 35
11 28 1 42 3 33 6 -33 8 -20 33 17 33 29 0 44 9 82 47 27 28 48 43 51 35 5
-17 22 -15 22 3 0 8 5 15 10 15 6 0 10 -9 10 -20 0 -11 3 -20 8 -21 35 -3 51
-13 79 -46 60 -69 102 -111 107 -105 3 3 6 -2 6 -11 0 -11 -6 -15 -17 -11 -11
4 -6 -4 10 -17 15 -13 29 -31 30 -39 2 -8 6 -21 11 -28 4 -7 2 -19 -4 -27 -9
-11 -9 -15 -1 -15 6 0 11 -7 11 -15 0 -7 7 -18 16 -23 9 -5 14 -15 12 -23 -3
-8 -1 -22 4 -33 7 -13 7 -16 -1 -11 -14 8 -4 -42 12 -62 6 -9 6 -13 -1 -13 -6
0 -5 -18 4 -47 8 -27 14 -62 12 -80 -1 -19 4 -39 15 -51 20 -22 23 -62 5 -62
-9 0 -9 -3 -2 -8 22 -15 32 -54 37 -141 1 -25 8 -46 15 -49 9 -3 12 1253 12
6257 l0 6261 -8535 0 -8535 0 0 -7794z m6631 2609 c2 -28 4 -37 13 -57 11 -25
25 -22 32 7 3 14 12 25 18 25 9 0 11 -22 9 -77 -3 -72 -2 -76 12 -56 8 12 15
26 14 30 -1 4 -1 26 0 48 2 36 3 38 12 16 5 -13 8 -59 6 -102 -3 -64 -1 -76
10 -67 9 7 13 7 13 0 0 -6 -8 -15 -17 -21 -16 -8 -15 -13 7 -55 16 -32 26 -43
32 -34 6 10 8 8 8 -4 0 -13 -8 -18 -25 -18 -14 0 -25 -4 -25 -10 0 -5 14 -10
30 -10 18 0 30 -5 30 -13 0 -22 29 -53 37 -41 11 16 83 5 83 -12 0 -8 5 -14
11 -14 7 0 17 -7 24 -17 13 -17 35 -10 35 11 0 7 -29 54 -65 104 -36 51 -64
98 -62 104 1 7 -4 12 -12 13 -15 0 -56 64 -47 73 3 3 13 -11 21 -31 17 -41 30
-50 20 -14 -7 21 -6 21 18 -3 13 -14 37 -46 52 -70 16 -25 38 -55 49 -67 11
-13 14 -23 8 -23 -14 0 80 -124 111 -145 11 -8 24 -12 29 -9 4 3 5 -1 2 -9 -7
-20 37 -38 62 -25 15 9 14 6 -4 -12 -22 -21 -24 -21 -43 -4 -24 21 -36 13 -14
-10 10 -10 12 -16 5 -16 -7 0 -9 -7 -6 -15 3 -9 -1 -18 -9 -21 -8 -4 -15 -16
-15 -28 0 -11 -7 -29 -14 -39 -12 -15 -14 -15 -19 -3 -4 9 -2 18 3 21 6 4 10
10 10 16 0 5 -9 4 -20 -3 -12 -8 -18 -20 -14 -33 2 -11 -6 -37 -20 -60 l-25
-40 -2 30 c-2 30 -2 29 -12 -7 -11 -38 -37 -53 -37 -21 0 9 -3 13 -7 9 -4 -4
-7 -21 -8 -39 0 -25 -4 -31 -17 -29 -14 2 -18 -4 -18 -24 0 -20 -4 -25 -16
-20 -12 4 -15 2 -10 -9 3 -9 0 -15 -9 -15 -9 0 -12 6 -9 15 5 11 -1 14 -25 12
-17 -1 -31 -5 -31 -9 0 -5 -18 -8 -39 -8 -22 0 -42 -5 -44 -12 -4 -8 -6 -7 -6
3 -1 9 9 20 22 24 l22 8 -22 4 c-12 2 -21 10 -19 16 1 7 1 9 -1 5 -3 -5 -12
-8 -21 -9 -11 0 -12 -2 -4 -6 6 -2 12 -9 12 -14 0 -15 -22 -10 -42 8 -14 12
-41 18 -96 20 -149 6 -152 6 -152 20 0 14 -65 19 -74 5 -6 -11 -33 -8 -69 7
-35 14 -58 14 -93 1 -15 -6 -41 -12 -58 -14 -17 -2 -32 -9 -34 -15 -2 -6 -8
-9 -13 -5 -5 3 -9 -3 -9 -12 0 -13 3 -15 11 -7 13 13 36 7 62 -15 12 -11 14
-18 6 -23 -6 -4 10 -6 37 -5 37 1 48 -2 46 -13 -2 -9 3 -11 14 -7 9 3 28 9 42
12 22 5 24 3 12 -6 -12 -9 -9 -10 13 -5 16 3 26 2 24 -2 -3 -4 9 -9 26 -10 35
-3 63 -23 31 -23 -29 0 -35 -9 -21 -31 14 -23 37 -25 37 -4 0 20 16 19 24 -1
3 -8 10 -13 15 -9 5 3 12 1 16 -5 3 -5 19 -8 35 -6 27 3 28 2 19 -23 -6 -14
-15 -31 -21 -39 -6 -7 -7 -12 -2 -11 21 4 26 -2 14 -16 -8 -9 -8 -15 -2 -15 6
0 17 7 26 15 8 8 16 15 18 15 7 0 6 -56 -2 -70 -5 -9 -5 -22 0 -30 6 -10 10
-3 15 23 9 48 22 55 27 17 3 -19 0 -30 -8 -30 -6 0 -14 -9 -17 -20 -3 -11 -1
-18 3 -15 12 7 21 -10 15 -27 -6 -15 -8 -16 -60 -22 -45 -5 -45 -5 -45 -17 0
-8 5 -7 15 1 13 10 19 10 33 -4 10 -9 23 -16 28 -16 5 0 2 5 -6 11 -12 8 -9 9
12 5 15 -3 30 -2 33 4 3 5 13 10 21 10 11 0 13 -6 9 -21 -6 -19 -4 -21 14 -16
14 3 21 0 21 -9 0 -17 10 -17 44 -4 14 5 26 6 26 1 0 -5 10 -11 21 -14 16 -4
20 -11 16 -27 -6 -24 24 -43 31 -21 4 11 6 11 13 0 8 -11 11 -11 20 4 10 18
12 18 26 -2 9 -14 12 -32 8 -50 -4 -18 -2 -32 5 -36 13 -8 35 9 35 27 0 6 6
13 13 16 9 3 12 -3 10 -14 -2 -13 3 -19 17 -19 14 0 19 6 17 18 -2 9 2 17 8
17 5 0 10 -6 10 -14 0 -9 12 -12 40 -10 22 1 40 -2 40 -7 0 -6 -10 -9 -22 -7
-11 2 -23 -3 -26 -11 -3 -10 5 -12 37 -9 32 3 39 1 27 -7 -10 -8 -12 -16 -5
-26 13 -21 11 -29 -6 -23 -8 4 -15 1 -15 -5 0 -6 6 -11 14 -11 8 0 24 -12 35
-26 14 -18 21 -21 21 -12 0 14 27 28 56 28 6 0 10 -10 10 -22 -1 -17 -8 -24
-30 -28 -16 -3 -32 -12 -34 -20 -5 -13 -3 -13 11 -1 18 14 16 16 32 -34 6 -19
-9 -19 -28 -1 -13 13 -14 12 -14 -8 0 -13 -8 -39 -17 -57 -11 -21 -13 -36 -6
-43 6 -6 2 -13 -12 -20 -12 -6 -25 -22 -28 -36 -5 -22 -7 -23 -13 -7 -4 11 -4
24 0 29 3 7 1 8 -5 4 -7 -4 -12 -16 -12 -27 0 -11 -7 -19 -16 -19 -12 0 -15
-7 -11 -25 3 -20 1 -25 -12 -23 -33 5 -72 -12 -69 -30 2 -10 -3 -16 -10 -14
-10 2 -12 -5 -8 -25 3 -15 2 -35 -4 -43 -8 -12 -10 -10 -11 10 l-1 25 -10 -27
c-5 -16 -16 -28 -24 -28 -8 0 -14 -7 -14 -15 0 -8 -7 -15 -15 -15 -9 0 -18 -7
-21 -15 -8 -20 -24 -19 -40 3 -7 9 -14 12 -14 6 0 -5 9 -20 20 -32 11 -12 20
-26 20 -32 0 -5 4 -10 9 -10 4 0 4 -20 -2 -44 l-10 -43 -28 16 c-22 13 -31 13
-41 3 -9 -9 -9 -15 0 -24 7 -7 12 -20 12 -30 0 -10 7 -30 16 -44 9 -13 13 -28
9 -32 -4 -4 -10 -1 -12 6 -7 19 -23 14 -23 -8 0 -11 -6 -23 -14 -26 -11 -4
-12 -13 -5 -36 10 -37 4 -51 -21 -43 -10 3 -21 2 -24 -3 -3 -5 10 -8 29 -6 27
2 35 -1 35 -14 0 -14 2 -14 9 -3 5 7 6 23 3 35 -5 18 -3 19 10 8 13 -10 14
-20 7 -45 -13 -47 -11 -55 12 -28 24 29 37 20 21 -14 -15 -32 -17 -88 -2 -65
10 17 15 14 24 -17 5 -14 3 -23 -3 -23 -15 0 -14 -36 1 -63 16 -29 17 -79 1
-95 -10 -11 -12 -7 -7 20 3 18 7 39 10 46 2 6 -3 12 -11 12 -15 0 -37 -63 -29
-85 3 -7 -6 -36 -20 -66 -30 -61 -31 -66 -11 -49 12 10 18 10 30 0 8 -7 15
-17 15 -22 0 -6 -6 -5 -14 2 -11 8 -20 9 -33 1 -10 -6 -13 -11 -8 -11 6 0 3
-5 -5 -11 -11 -8 -12 -12 -2 -16 21 -8 14 -35 -8 -28 -25 8 -27 -11 -4 -43 13
-19 13 -24 0 -43 -14 -21 -15 -21 -19 7 l-4 29 -2 -31 c-1 -23 -8 -33 -28 -42
-24 -9 -21 -10 26 -6 37 4 51 2 47 -5 -4 -6 -25 -11 -46 -11 -27 0 -47 -7 -67
-25 -21 -18 -24 -24 -12 -25 9 0 22 -7 29 -15 7 -8 16 -13 20 -10 5 3 3 -6 -3
-19 -9 -18 -15 -22 -24 -14 -7 6 -14 8 -14 4 -1 -3 -3 -10 -4 -16 -1 -5 -3
-16 -4 -22 -1 -9 -6 -7 -15 5 -7 9 -15 17 -18 17 -9 0 -8 -79 2 -85 5 -3 10
-11 10 -17 0 -6 -11 0 -23 14 l-24 26 -14 -22 c-8 -11 -16 -34 -19 -51 -3 -18
-11 -30 -20 -30 -29 0 -74 -32 -80 -56 -3 -13 -12 -24 -20 -24 -19 0 -26 45
-9 56 8 4 10 11 6 16 -5 4 -12 1 -17 -6 -4 -8 -15 -11 -24 -8 -11 5 -16 1 -16
-13 0 -27 -19 -25 -30 3 -5 12 -9 16 -9 10 -1 -7 -8 -13 -16 -13 -9 0 -18 -7
-21 -15 -4 -8 -11 -12 -17 -8 -7 4 -8 0 -4 -11 4 -10 7 -21 7 -25 0 -4 9 -17
21 -29 18 -20 18 -23 3 -29 -18 -7 -32 9 -41 50 -3 15 -9 27 -13 27 -5 0 -6
-8 -3 -19 3 -10 0 -22 -6 -25 -16 -11 -13 -24 7 -28 11 -3 8 -6 -11 -10 -22
-4 -27 -2 -23 9 18 45 17 59 -3 60 -22 2 -28 -11 -11 -22 17 -11 0 -26 -22
-19 -17 5 -18 3 -9 -14 9 -17 8 -21 -7 -25 -9 -3 -3 -5 14 -6 20 -1 34 -7 38
-17 10 -25 -2 -29 -24 -9 -23 21 -28 4 -5 -19 8 -8 15 -18 15 -21 0 -4 -7 -5
-15 -1 -9 3 -15 0 -15 -9 0 -18 -16 -20 -23 -2 -3 6 -6 1 -6 -13 -1 -14 -5
-31 -10 -39 -12 -19 -34 -3 -28 20 3 10 1 22 -4 25 -15 9 -10 22 9 27 9 2 2 4
-16 4 -18 0 -30 -3 -25 -6 4 -3 9 -15 11 -26 2 -11 5 -31 7 -44 l3 -23 -24 23
c-20 19 -24 20 -24 6 0 -9 -8 -17 -17 -17 -15 0 -16 -2 -3 -10 13 -9 13 -11 0
-20 -13 -9 -13 -11 0 -19 8 -6 11 -13 7 -18 -5 -4 -13 -1 -18 7 -7 9 -12 11
-15 4 -2 -6 -18 -8 -34 -6 -25 4 -30 1 -30 -16 0 -13 -9 -22 -25 -26 -14 -4
-25 -10 -25 -15 0 -5 -9 -7 -20 -4 -23 6 -28 -15 -8 -35 9 -9 8 -12 -5 -12
-10 0 -26 -6 -38 -12 -17 -11 -22 -10 -30 5 -8 14 -14 15 -24 7 -8 -6 -11 -19
-8 -27 4 -11 2 -14 -5 -9 -7 4 -12 14 -12 22 0 9 -6 14 -12 11 -7 -2 -12 -14
-11 -25 2 -13 -2 -19 -10 -16 -7 2 -21 -7 -31 -21 -10 -14 -26 -25 -35 -26
-10 0 -12 -2 -3 -6 6 -2 10 -9 7 -13 -3 -5 -12 -7 -19 -4 -7 3 -16 -2 -20 -11
-4 -12 -10 -14 -25 -6 -14 8 -24 6 -40 -8 -11 -10 -18 -21 -15 -24 4 -3 -11
-22 -31 -42 -28 -26 -47 -35 -71 -35 -28 0 -34 -4 -34 -21 0 -19 -21 -49 -34
-49 -3 0 -3 8 0 18 5 16 5 16 -6 -1 -6 -9 -8 -22 -5 -27 8 -13 -19 -40 -39
-40 -9 0 -16 -4 -16 -10 0 -5 9 -10 20 -10 11 0 20 -4 20 -9 0 -6 -19 -8 -42
-5 -28 3 -38 1 -29 -5 8 -5 11 -16 7 -27 -5 -13 0 -24 16 -36 13 -10 17 -18
10 -18 -26 0 -119 107 -152 176 -30 63 -33 77 -34 169 -1 114 14 167 71 249
l35 48 -17 77 c-9 42 -30 109 -46 149 -33 84 -35 110 -13 175 12 36 26 53 62
77 42 28 79 40 69 23 -6 -9 173 -7 291 3 130 10 78 60 -73 70 -22 1 -83 12
-135 23 -52 12 -108 23 -123 24 -26 3 -28 1 -25 -29 1 -18 -1 -36 -5 -40 -12
-12 -48 28 -42 47 3 9 2 20 -3 23 -12 7 -44 -28 -41 -46 1 -7 1 -24 0 -37 l-1
-24 -24 26 c-21 23 -23 31 -15 60 10 36 46 110 85 172 21 34 24 50 21 102 -2
50 0 64 13 68 8 3 24 23 35 46 11 23 29 47 40 53 11 6 23 16 28 23 4 7 24 15
45 18 67 11 112 26 112 38 0 7 7 -1 15 -17 21 -40 19 -55 -10 -62 -28 -7 -32
-25 -10 -44 16 -14 31 -10 163 45 84 35 160 141 161 224 1 59 -22 151 -37 151
-9 0 -12 6 -8 15 5 15 -31 56 -114 129 -27 24 -36 27 -51 17 -22 -13 -42 -15
-34 -2 3 5 1 12 -4 15 -5 4 -13 -4 -17 -16 -8 -22 -8 -22 -14 7 l-7 30 -10
-24 c-6 -16 -12 -20 -17 -13 -4 7 -12 10 -17 7 -5 -4 -9 1 -9 9 0 9 -5 16 -11
16 -6 0 -9 -7 -5 -15 4 -12 -3 -15 -32 -16 -20 -1 -43 -1 -49 0 -7 1 -13 -5
-13 -14 0 -18 -27 -20 -32 -3 -3 9 -9 8 -21 -4 -9 -9 -17 -21 -17 -27 0 -5 -9
-12 -19 -16 -16 -5 -18 -11 -11 -35 7 -24 5 -30 -6 -30 -24 0 -5 -20 19 -21
21 -1 21 -1 -2 -8 -18 -5 -25 -14 -25 -34 -2 -29 -4 -29 77 -5 31 9 43 9 60
-1 15 -10 22 -11 25 -2 6 17 18 13 20 -6 6 -51 2 -127 -6 -135 -5 -5 -19 -1
-34 11 -17 14 -28 17 -35 10 -16 -16 -46 30 -31 48 7 9 7 13 -1 13 -6 0 -11
-4 -11 -10 0 -15 -28 -12 -37 5 -15 26 -122 34 -183 14 -101 -33 -125 -90 -88
-204 36 -109 32 -117 -31 -60 -54 49 -74 95 -72 168 3 138 35 186 203 297 163
109 261 192 372 315 119 132 175 206 192 252 16 45 18 129 4 138 -5 3 -10 19
-10 34 0 18 -8 34 -22 43 -19 13 -23 26 -26 86 -4 68 8 172 28 237 48 158 91
279 137 380 85 185 167 359 173 365 3 3 11 16 18 30 11 23 12 20 7 -21 -5 -38
-3 -48 11 -53 9 -4 18 -5 19 -4 1 2 14 29 30 62 16 32 35 61 42 63 7 3 13 9
13 15 0 5 14 30 32 56 17 25 35 62 39 82 6 30 7 31 8 8 1 -25 21 -52 21 -28 0
21 26 40 39 27 8 -8 11 -4 11 16 0 15 3 27 8 27 4 0 18 3 31 7 21 5 22 3 16
-17 -6 -19 -4 -21 16 -15 17 6 21 4 16 -7 -3 -8 -1 -21 4 -29 5 -9 9 -10 9 -2
0 6 14 14 30 18 17 4 30 13 30 21 0 9 7 14 17 12 11 -2 22 6 28 20 5 12 15 20
21 18 6 -2 26 10 45 27 59 54 90 71 100 56 5 -8 6 -22 3 -31 -3 -11 0 -18 7
-18 16 0 38 31 39 54 0 15 3 16 15 6 13 -10 15 -9 15 12 0 14 3 27 6 31 11 11
44 -17 45 -38z m693 2 c4 -19 3 -26 -4 -22 -5 3 -10 18 -10 32 0 32 5 28 14
-10z m-416 -213 c-4 -3 -12 5 -18 18 -12 22 -12 22 6 6 10 -10 15 -20 12 -24z
m334 14 c-3 -14 -2 -19 6 -14 8 5 12 0 12 -13 0 -10 -6 -22 -12 -24 -8 -3 -6
-6 5 -6 9 -1 17 -8 17 -16 0 -8 5 -15 10 -15 6 0 10 -10 10 -23 0 -29 45 -75
53 -55 3 7 6 2 6 -11 1 -17 -3 -22 -15 -17 -15 6 -15 4 -3 -10 9 -11 15 -12
17 -5 3 9 11 7 28 -4 23 -15 22 -13 -6 32 -20 32 -30 60 -30 87 0 45 12 42 17
-6 2 -18 7 -34 11 -37 4 -4 13 -17 20 -31 11 -23 11 -21 5 15 l-6 40 22 -27
c24 -29 27 -43 9 -32 -7 4 -6 -1 3 -12 8 -10 16 -29 17 -41 0 -11 10 -52 21
-91 29 -96 25 -123 -6 -35 -24 70 -55 114 -84 119 -8 1 -26 5 -40 9 -21 5 -30
2 -43 -16 -9 -13 -16 -18 -16 -12 0 6 6 16 14 22 12 10 12 17 2 39 -7 15 -18
38 -24 52 -10 22 -10 20 -6 -15 4 -22 8 -43 11 -47 2 -5 -1 -8 -6 -8 -6 0 -11
1 -12 3 0 1 -3 25 -6 52 -3 28 -9 55 -13 60 -10 12 0 115 10 115 5 0 6 -10 2
-22z m-462 -72 c0 -3 -4 -8 -10 -11 -5 -3 -10 -1 -10 4 0 6 5 11 10 11 6 0 10
-2 10 -4z m819 -76 c0 -8 -7 -3 -15 13 -8 15 -12 33 -7 40 7 12 20 -20 22 -53z
m-809 40 c0 -5 -2 -10 -4 -10 -3 0 -8 5 -11 10 -3 6 -1 10 4 10 6 0 11 -4 11
-10z m408 -48 c-14 -7 -8 -22 8 -22 13 0 14 -3 4 -15 -20 -24 -46 1 -47 45
l-1 37 22 -21 c11 -12 18 -22 14 -24z m142 6 c0 -6 -6 -5 -15 2 -8 7 -15 14
-15 16 0 2 7 1 15 -2 8 -4 15 -11 15 -16z m-193 -3 c0 -8 -4 -12 -9 -9 -5 3
-6 10 -3 15 9 13 12 11 12 -6z m483 5 c0 -5 -2 -10 -4 -10 -3 0 -8 5 -11 10
-3 6 -1 10 4 10 6 0 11 -4 11 -10z m-1973 -42 c-3 -8 -6 -5 -6 6 -1 11 2 17 5
13 3 -3 4 -12 1 -19z m1927 6 c3 -8 2 -12 -4 -9 -6 3 -10 10 -10 16 0 14 7 11
14 -7z m83 -44 c7 0 13 -6 13 -14 0 -9 -7 -12 -20 -9 -11 3 -20 13 -20 23 0
10 -1 24 -3 32 -2 7 1 3 7 -9 5 -13 16 -23 23 -23z m-254 -54 c4 -10 1 -13 -9
-9 -15 6 -19 23 -5 23 5 0 11 -7 14 -14z m312 -15 c-3 -6 -11 -11 -16 -11 -5
0 -4 6 3 14 14 16 24 13 13 -3z m-195 -49 c0 -15 -2 -15 -10 -2 -13 20 -13 33
0 25 6 -3 10 -14 10 -23z m-175 -2 c3 -5 2 -10 -4 -10 -5 0 -13 5 -16 10 -3 6
-2 10 4 10 5 0 13 -4 16 -10z m264 -60 c0 -10 -3 -8 -9 5 -12 27 -12 43 0 25
5 -8 9 -22 9 -30z m95 -52 c19 -66 28 -138 17 -138 -9 0 -30 74 -29 100 0 8
-3 32 -7 53 -11 55 1 45 19 -15z m-510 33 c4 -5 -3 -7 -14 -4 -23 6 -26 13 -6
13 8 0 17 -4 20 -9z m456 -32 c0 -6 -4 -7 -10 -4 -5 3 -10 11 -10 16 0 6 5 7
10 4 6 -3 10 -11 10 -16z m24 -108 c-2 -3 -12 3 -22 13 -16 17 -16 18 5 5 12
-7 20 -15 17 -18z m-597 -23 c-3 -8 -6 -5 -6 6 -1 11 2 17 5 13 3 -3 4 -12 1
-19z m532 -41 c-2 -2 -17 12 -33 32 l-30 36 34 -32 c19 -18 32 -34 29 -36z
m99 -42 c-3 -3 -13 7 -23 22 l-17 28 23 -22 c12 -12 20 -25 17 -28z m-1568
-34 c0 -5 8 -12 18 -14 14 -4 14 -5 1 -6 -9 0 -22 6 -29 14 -9 10 -9 15 -1 15
6 0 11 -4 11 -9z m475 -11 c-3 -5 -15 -10 -26 -10 -11 0 -17 5 -14 10 3 6 15
10 26 10 11 0 17 -4 14 -10z m1063 -35 c-3 -3 -9 2 -12 12 -6 14 -5 15 5 6 7
-7 10 -15 7 -18z m-870 -4 c-6 -10 -18 -17 -25 -14 -7 3 -13 0 -13 -6 0 -6 -7
-8 -15 -5 -22 9 3 37 27 31 10 -3 18 -1 18 4 0 5 5 9 10 9 6 0 6 -7 -2 -19z
m66 -19 c2 -4 -5 -9 -17 -9 -17 -2 -19 0 -7 7 18 12 18 12 24 2z m-94 -91 c0
-6 -4 -13 -10 -16 -5 -3 -10 1 -10 9 0 9 5 16 10 16 6 0 10 -4 10 -9z m1018
-106 c0 -16 -2 -15 -8 5 -11 34 -11 60 0 35 5 -11 8 -29 8 -40z m-188 -7 c0
-6 -6 -5 -15 2 -8 7 -15 14 -15 16 0 2 7 1 15 -2 8 -4 15 -11 15 -16z m-22
-83 c-3 -3 -9 2 -12 12 -6 14 -5 15 5 6 7 -7 10 -15 7 -18z m-961 -57 c-3 -8
-6 -5 -6 6 -1 11 2 17 5 13 3 -3 4 -12 1 -19z m2538 -71 c51 -11 79 -32 69
-49 -8 -13 -22 -9 -41 11 -27 27 -54 30 -130 15 -110 -22 -166 -43 -199 -72
-33 -30 -84 -96 -84 -109 0 -5 -13 -24 -30 -43 -16 -19 -29 -39 -30 -45 0 -5
-7 -23 -15 -39 -8 -15 -12 -32 -9 -37 3 -6 0 -16 -6 -24 -6 -8 -9 -19 -6 -24
4 -5 2 -12 -4 -16 -5 -3 -8 -20 -5 -37 7 -35 -17 -68 -48 -68 -14 0 -17 4 -12
18 17 40 18 52 3 47 -24 -9 -25 131 -2 156 11 12 17 35 17 59 0 29 3 37 13 33
8 -3 14 1 14 10 0 9 9 19 20 22 11 3 20 11 20 16 0 6 4 8 10 4 5 -3 16 7 24
22 22 43 84 95 156 130 62 31 69 33 160 29 52 -2 104 -6 115 -9z m-2126 -71
c-3 -3 -16 -2 -29 1 -22 6 -22 7 -4 14 18 6 43 -5 33 -15z m679 -131 c0 -29 0
-29 -8 -5 -4 14 -8 45 -8 70 l0 45 9 -40 c4 -22 8 -53 7 -70z m-6244 69 c4 -9
13 -14 21 -10 9 3 15 0 15 -9 0 -8 9 -15 20 -15 10 0 24 -9 30 -20 6 -11 16
-20 23 -19 26 4 65 -21 71 -45 4 -16 11 -23 20 -20 9 3 17 -3 21 -15 3 -12 13
-21 21 -21 8 0 14 -8 14 -19 0 -10 9 -21 21 -24 11 -3 23 -15 26 -26 3 -12 11
-21 19 -21 7 0 17 -12 20 -26 4 -16 9 -22 14 -14 4 7 10 -1 13 -19 4 -17 25
-50 47 -73 29 -30 36 -44 27 -50 -9 -6 -9 -10 2 -17 7 -5 11 -14 7 -20 -4 -6
-2 -19 4 -30 5 -11 10 -63 11 -115 0 -53 5 -99 10 -102 6 -3 4 -11 -4 -17 -15
-12 -29 -67 -18 -67 4 0 12 5 19 12 9 9 12 9 12 0 0 -7 -4 -12 -10 -12 -5 0
-10 -7 -10 -17 0 -14 -2 -14 -20 2 -24 22 -25 16 -5 -32 19 -45 19 -45 -7 -73
-13 -14 -23 -30 -23 -37 0 -6 -13 -25 -28 -42 -15 -17 -27 -38 -27 -46 0 -8
-7 -15 -15 -15 -8 0 -15 -4 -15 -10 0 -5 5 -10 10 -10 20 0 9 -20 -14 -26 -25
-6 -37 -39 -37 -95 0 -19 -5 -26 -17 -25 -11 1 -18 -8 -21 -24 -1 -14 -8 -29
-15 -33 -7 -6 -4 -7 7 -3 24 8 23 -28 -2 -45 -15 -10 -18 -21 -14 -41 5 -26
33 -41 33 -18 0 6 9 10 20 10 13 0 20 -7 20 -20 0 -25 38 -28 47 -3 6 15 7 15
13 -1 5 -16 8 -17 21 -4 20 20 155 23 166 4 10 -17 53 -31 53 -17 0 19 31 -1
41 -25 6 -17 16 -24 34 -24 14 0 25 -4 25 -10 0 -5 -4 -10 -10 -10 -18 0 -11
-17 9 -23 13 -3 21 -17 26 -46 4 -22 10 -41 14 -41 4 0 5 -20 1 -45 -5 -33 -3
-48 9 -59 14 -14 13 -17 -3 -29 -11 -8 -16 -19 -12 -25 3 -6 2 -13 -3 -16 -5
-4 -12 -24 -16 -46 -4 -22 -10 -42 -15 -45 -5 -3 -11 -23 -15 -44 -4 -22 -12
-42 -20 -45 -7 -2 -16 -19 -20 -36 -4 -18 -16 -41 -26 -51 -11 -11 -20 -29
-22 -42 -1 -12 -10 -25 -19 -29 -10 -4 -18 -18 -18 -32 0 -16 -7 -27 -20 -31
-11 -3 -23 -18 -27 -33 -3 -15 -17 -46 -30 -69 -12 -23 -23 -53 -23 -67 0 -14
-5 -26 -11 -26 -7 0 -9 -9 -6 -21 3 -12 0 -28 -9 -36 -16 -17 -19 -53 -3 -53
11 0 5 -28 -17 -73 -8 -18 -11 -48 -8 -83 3 -35 1 -61 -7 -70 -8 -10 -8 -14 0
-14 6 0 11 -17 11 -39 0 -23 5 -41 13 -44 6 -2 -1 -2 -18 1 l-30 4 33 -30 c25
-22 29 -31 18 -35 -12 -5 -11 -17 6 -84 18 -72 18 -80 4 -111 -18 -36 -9 -55
30 -65 16 -4 16 -5 -3 -6 -19 -1 -23 -7 -23 -36 0 -19 -4 -35 -10 -35 -5 0
-10 -5 -10 -12 0 -6 3 -9 6 -5 3 3 12 0 19 -6 9 -9 10 -16 2 -25 -6 -8 -10
-34 -8 -59 1 -26 -3 -49 -9 -53 -6 -4 -13 -24 -17 -46 -3 -21 -17 -50 -30 -63
-12 -13 -23 -30 -23 -37 0 -8 -7 -14 -15 -14 -8 0 -15 -8 -15 -17 0 -9 -10
-27 -21 -40 -18 -18 -20 -25 -9 -38 9 -11 9 -15 1 -15 -6 0 -14 7 -17 15 -4 8
-13 15 -21 15 -8 0 -11 -5 -8 -11 11 -17 -16 -69 -36 -69 -11 0 -19 -7 -19
-18 0 -9 -9 -23 -21 -30 -11 -7 -18 -19 -15 -27 3 -8 -3 -17 -15 -20 -10 -4
-19 -13 -19 -21 0 -25 -142 -66 -155 -44 -3 4 -21 11 -40 14 -19 4 -35 11 -35
17 0 5 -5 15 -10 22 -36 43 -63 96 -62 120 2 15 -4 37 -12 49 -13 18 -13 23 0
35 18 18 18 29 1 45 -17 15 -10 48 9 48 8 0 14 5 14 11 0 6 -7 9 -15 5 -18 -6
-20 16 -4 45 8 16 7 25 -4 37 -12 14 -13 29 -6 80 9 63 5 87 -11 77 -4 -3 -11
3 -14 12 -4 9 -1 20 6 25 9 5 5 8 -12 8 -16 0 -44 19 -80 53 -30 28 -58 51
-62 49 -5 -1 -8 4 -8 10 0 7 -9 24 -20 38 -11 14 -20 31 -20 38 0 7 -11 28
-24 45 -41 54 -69 142 -61 193 3 24 10 44 15 44 5 0 11 15 15 33 9 46 26 77
42 77 8 0 12 4 9 9 -3 5 1 14 9 21 8 7 12 17 8 23 -3 6 -1 7 6 3 6 -4 14 0 18
11 4 10 14 23 22 30 9 6 13 15 9 19 -4 4 1 19 11 33 24 33 28 70 13 98 -7 12
-12 29 -12 37 0 9 -4 16 -10 16 -5 0 -10 7 -10 15 0 8 -7 15 -15 15 -8 0 -15
7 -15 16 0 21 -27 46 -53 50 -12 1 -30 5 -39 9 -10 4 -24 -1 -37 -14 -20 -20
-20 -20 -26 0 -8 25 -28 13 -22 -13 5 -17 2 -18 -26 -12 -47 10 -63 30 -47 60
19 34 30 30 24 -8 -4 -27 -3 -29 5 -12 12 27 28 38 36 24 8 -13 25 -13 25 1 0
6 10 20 23 31 15 13 18 21 10 24 -7 3 -13 12 -13 19 0 7 6 15 13 18 9 3 9 9 1
23 -9 15 -8 24 4 42 8 12 10 22 4 22 -11 0 -4 90 9 104 5 6 9 20 9 33 0 13 6
26 14 29 12 5 24 27 30 56 0 3 4 9 8 13 4 4 4 13 1 21 -3 8 -1 14 5 14 5 0 12
18 16 40 4 26 11 40 21 40 9 0 15 9 15 24 0 35 10 56 27 56 11 0 14 7 11 25
-3 14 -2 25 1 25 4 0 35 28 68 61 50 50 60 65 53 80 -7 12 -6 19 2 21 7 3 13
23 13 46 0 22 -1 39 -3 37 -2 -2 -20 8 -39 21 -20 13 -40 24 -44 24 -5 0 -9 7
-9 15 0 8 -6 15 -14 15 -7 0 -21 11 -30 25 -9 14 -21 23 -26 20 -6 -3 -7 1 -4
9 4 10 1 16 -7 16 -11 0 -11 3 1 10 13 8 13 10 -2 10 -10 0 -24 14 -33 30 -9
17 -21 30 -27 30 -6 0 -9 3 -5 6 3 3 -1 28 -9 56 -16 51 -13 156 6 208 14 41
23 84 21 98 -1 8 3 20 10 28 6 7 9 20 6 29 -4 8 -2 17 4 21 5 3 9 13 8 22 -2
10 8 37 21 62 12 25 22 47 22 50 -3 13 20 81 43 126 14 27 25 57 25 67 0 9 5
17 10 17 6 0 10 6 8 13 -3 18 48 113 94 173 37 50 76 74 119 74 11 0 19 7 19
15 0 20 26 19 34 -1z m5659 -18 c-3 -4 1 -12 8 -17 9 -6 10 -9 2 -9 -6 0 -18
7 -27 15 -8 8 -23 12 -33 9 -14 -4 -15 -4 -4 4 16 12 61 11 54 -2z m2247 -18
c0 -6 18 -30 39 -54 40 -46 49 -72 57 -177 16 -200 -31 -358 -133 -447 -39
-35 -58 -33 -26 3 37 41 94 170 103 237 23 155 -8 381 -56 421 -8 6 -14 20
-14 31 0 17 3 18 15 8 8 -7 15 -17 15 -22z m-2274 -45 c-11 -11 -19 6 -11 24
8 17 8 17 12 0 3 -10 2 -21 -1 -24z m71 -140 c-3 -10 -5 -2 -5 17 0 19 2 27 5
18 2 -10 2 -26 0 -35z m1973 -104 c-11 -58 -17 -109 -24 -226 -2 -23 -8 -54
-13 -70 -6 -15 -16 -55 -23 -88 -19 -92 -82 -194 -226 -364 -30 -35 -35 -61
-10 -61 7 0 56 22 109 50 53 27 97 48 97 46 0 -2 -24 -29 -52 -60 -51 -54
-163 -126 -196 -126 -10 0 -51 -34 -92 -75 -41 -41 -80 -75 -87 -75 -7 0 -13
-4 -13 -8 0 -7 -44 -47 -136 -121 -19 -16 -68 -39 -90 -42 -15 -3 -34 9 -60
36 -79 80 -84 100 -60 236 15 88 23 106 39 90 24 -24 67 -12 110 32 48 49 158
97 267 117 58 10 154 55 201 92 46 38 97 120 113 182 15 60 15 69 0 113 -20
62 -75 132 -122 159 -20 11 -38 28 -40 36 -3 17 51 46 103 55 29 5 114 73 91
73 -5 0 -4 6 1 13 6 6 16 39 23 73 l12 61 45 -42 44 -42 -11 -64z m-2180 -130
c0 -5 -7 -9 -15 -9 -15 0 -20 12 -9 23 8 8 24 -1 24 -14z m1 -36 c-10 -4 -10
-7 -1 -13 8 -5 7 -9 -4 -13 -11 -5 -16 -1 -16 13 0 13 6 20 18 19 12 0 13 -2
3 -6z m-51 -69 c0 -14 -4 -22 -10 -19 -5 3 -10 17 -10 31 0 14 4 22 10 19 6
-3 10 -17 10 -31z m-100 -54 c0 -5 -7 -10 -15 -10 -8 0 -15 5 -15 10 0 6 7 10
15 10 8 0 15 -4 15 -10z m6 -41 c9 -15 -23 -10 -35 5 -10 12 -8 13 9 9 11 -3
23 -9 26 -14z m1585 -108 c-12 -22 -18 -47 -15 -56 7 -17 -27 -135 -38 -135
-5 0 -8 5 -8 11 0 5 -5 7 -10 4 -6 -4 -8 -15 -5 -24 3 -10 -1 -31 -10 -47 -8
-16 -15 -35 -15 -42 0 -7 -5 -10 -10 -7 -11 7 -2 57 12 66 6 3 9 15 8 25 -5
47 0 75 13 68 8 -5 7 -2 -2 9 -21 27 -7 109 30 174 20 34 34 51 39 43 5 -8 10
-6 16 7 6 14 9 10 12 -19 2 -23 -4 -51 -17 -77z m-1591 59 c0 -4 -7 -13 -15
-20 -13 -11 -15 -8 -15 13 0 19 4 25 15 21 8 -4 15 -10 15 -14z m-1313 -6 c-3
-3 -12 -4 -19 -1 -8 3 -5 6 6 6 11 1 17 -2 13 -5z m1283 -80 c0 -8 -5 -12 -10
-9 -6 4 -8 11 -5 16 9 14 15 11 15 -7z m-33 -24 c2 -11 -2 -20 -7 -20 -6 0
-10 12 -10 27 0 29 12 24 17 -7z m-1582 -60 c3 -5 2 -10 -4 -10 -5 0 -13 5
-16 10 -3 6 -2 10 4 10 5 0 13 -4 16 -10z m1545 -15 c0 -8 -4 -15 -10 -15 -5
0 -7 7 -4 15 4 8 8 15 10 15 2 0 4 -7 4 -15z m56 -42 c-10 -10 -19 5 -10 18 6
11 8 11 12 0 2 -7 1 -15 -2 -18z m-4841 -53 c3 -5 2 -10 -4 -10 -5 0 -13 5
-16 10 -3 6 -2 10 4 10 5 0 13 -4 16 -10z m4895 -32 c0 -6 -7 -7 -16 -4 -9 3
-18 6 -20 6 -3 0 -3 4 1 10 7 11 35 2 35 -12z m-4890 -2 c0 -2 -7 -6 -15 -10
-8 -3 -15 -1 -15 4 0 6 7 10 15 10 8 0 15 -2 15 -4z m4930 -21 c0 -8 -4 -15
-10 -15 -5 0 -10 7 -10 15 0 8 5 15 10 15 6 0 10 -7 10 -15z m-10 -295 c0 -5
-4 -10 -10 -10 -5 0 -10 5 -10 10 0 6 5 10 10 10 6 0 10 -4 10 -10z m-76 -71
c-6 -11 -24 -2 -24 11 0 5 7 7 15 4 8 -4 12 -10 9 -15z m-36 -87 c2 -7 -3 -12
-12 -12 -9 0 -16 7 -16 16 0 17 22 14 28 -4z m32 -51 c0 -6 -4 -13 -10 -16 -5
-3 -10 1 -10 9 0 9 5 16 10 16 6 0 10 -4 10 -9z m-5690 -91 c0 -5 -4 -10 -10
-10 -5 0 -10 5 -10 10 0 6 5 10 10 10 6 0 10 -4 10 -10z m5550 -54 c0 -22 -16
-28 -29 -12 -9 11 -9 15 1 19 22 9 28 8 28 -7z m40 -20 c0 -3 -4 -8 -10 -11
-5 -3 -10 -1 -10 4 0 6 5 11 10 11 6 0 10 -2 10 -4z m-10 -66 c0 -5 -2 -10 -4
-10 -3 0 -8 5 -11 10 -3 6 -1 10 4 10 6 0 11 -4 11 -10z m-136 -162 c16 -11
-6 -10 -23 1 -8 5 -10 14 -5 22 6 10 9 10 12 -1 3 -8 10 -18 16 -22z m46 23
c0 -6 -4 -13 -10 -16 -5 -3 -10 1 -10 9 0 9 5 16 10 16 6 0 10 -4 10 -9z m-74
-59 c-9 -8 -26 10 -26 26 1 15 2 15 15 -2 8 -11 13 -21 11 -24z m132 13 c-3
-3 -9 2 -12 12 -6 14 -5 15 5 6 7 -7 10 -15 7 -18z m-168 -20 c0 -6 -10 -20
-22 -31 -13 -10 -18 -12 -11 -5 7 8 9 27 6 45 -6 28 -5 30 10 17 9 -7 17 -19
17 -26z m83 9 c-27 -20 -39 -17 -17 5 10 10 23 16 27 14 5 -3 0 -11 -10 -19z
m-293 -30 c0 -8 -4 -12 -10 -9 -5 3 -10 10 -10 16 0 5 5 9 10 9 6 0 10 -7 10
-16z m168 5 c-2 -6 -8 -10 -13 -10 -5 0 -11 4 -13 10 -2 6 4 11 13 11 9 0 15
-5 13 -11z m-114 -22 c-3 -9 -12 -13 -20 -10 -12 4 -11 8 3 18 21 16 26 14 17
-8z m-64 -18 c0 -14 -17 -10 -23 5 -4 10 -1 13 9 9 7 -3 14 -9 14 -14z m40
-18 c0 -12 -20 -25 -27 -18 -7 7 6 27 18 27 5 0 9 -4 9 -9z m186 -60 c-4 -6
-14 -7 -23 -4 -15 6 -14 7 3 13 22 9 29 6 20 -9z m-294 -63 c-6 -6 -15 -9 -18
-5 -4 3 -4 14 0 23 5 13 9 15 18 6 9 -9 9 -15 0 -24z m-5292 -98 c0 -5 7 -10
15 -10 23 0 18 -14 -10 -27 -14 -6 -25 -7 -25 -3 0 5 6 11 13 14 10 5 10 7 0
12 -15 7 -17 24 -3 24 6 0 10 -4 10 -10z m1044 -618 c-7 -4 -14 -18 -17 -32
-4 -21 -4 -20 -6 8 -1 24 3 32 17 32 11 0 13 -3 6 -8z m6237 -235 c-10 -9 -11
-8 -5 6 3 10 9 15 12 12 3 -3 0 -11 -7 -18z m-61 -7 c0 -5 -7 -7 -15 -4 -8 4
-15 8 -15 10 0 2 7 4 15 4 8 0 15 -4 15 -10z m-45 -20 c3 -5 12 -7 20 -3 10 3
15 -2 15 -16 0 -12 5 -21 10 -21 6 0 10 7 10 15 0 23 17 18 24 -7 5 -19 8 -21
16 -8 5 8 10 11 11 5 1 -5 2 -14 4 -20 1 -5 3 -14 3 -19 1 -5 8 -4 15 1 6 6
25 13 41 17 26 6 28 5 17 -8 -7 -9 -16 -14 -20 -12 -4 3 -13 1 -21 -4 -12 -8
-11 -12 7 -29 21 -20 21 -20 28 2 6 19 8 19 12 5 2 -10 8 -18 12 -18 13 0 29
22 25 35 -3 7 1 15 9 18 11 4 13 0 10 -14 -3 -11 1 -21 11 -25 14 -5 14 -9 0
-36 -8 -16 -13 -36 -10 -44 7 -19 -9 -27 -23 -10 -8 10 -6 19 9 36 11 13 20
30 20 39 0 11 -8 7 -25 -13 -14 -16 -25 -34 -25 -40 0 -6 -3 -21 -6 -34 -5
-18 -3 -21 10 -16 12 4 16 0 16 -15 0 -12 5 -21 11 -21 6 0 9 9 6 20 -3 11 -2
18 3 15 8 -5 23 20 25 40 1 16 15 35 26 35 12 0 12 -47 0 -55 -18 -11 -42 -68
-32 -78 5 -5 7 -16 4 -23 -6 -17 9 -18 25 -2 24 24 24 -3 0 -52 -20 -39 -27
-47 -32 -34 -5 13 -10 14 -18 6 -13 -13 10 -41 28 -35 20 7 25 -29 9 -53 -10
-15 -11 -24 -4 -24 6 0 9 -7 5 -15 -4 -11 2 -15 22 -15 16 0 22 -3 15 -8 -8
-5 -9 -13 -3 -22 14 -22 12 -31 -7 -28 -14 2 -18 -3 -16 -27 2 -25 0 -27 -8
-12 -15 25 -27 21 -25 -9 1 -23 5 -25 34 -22 20 3 32 0 32 -8 0 -6 -12 -11
-26 -11 -28 0 -40 -13 -50 -51 -8 -28 3 -42 16 -22 8 12 10 10 10 -7 0 -13 -9
-32 -20 -43 -11 -11 -20 -26 -20 -32 0 -9 3 -9 9 1 7 10 14 0 25 -39 13 -44
14 -60 4 -87 -7 -18 -16 -33 -20 -33 -4 0 -8 -6 -8 -13 0 -27 -88 -93 -195
-147 -119 -59 -225 -127 -293 -189 -39 -34 -46 -37 -68 -27 -15 7 -24 19 -24
34 0 17 -6 22 -25 22 -31 0 -32 12 -2 25 15 7 21 17 19 33 -4 26 14 30 21 5 4
-15 5 -15 6 2 0 11 -8 26 -19 33 -12 7 -20 18 -18 25 1 7 -3 22 -10 35 -9 16
-10 27 -2 42 6 11 8 20 4 20 -3 0 -1 7 6 15 14 17 5 36 -14 29 -18 -7 -30 14
-17 29 6 8 6 18 1 27 -8 13 -10 13 -10 1 0 -8 -3 -11 -7 -8 -3 4 2 16 12 27
10 12 13 20 6 20 -8 0 -7 11 4 36 18 44 18 41 -1 48 -8 3 -13 2 -10 -3 6 -10
-24 -25 -32 -16 -3 3 0 5 6 5 7 0 12 5 12 11 0 6 -9 8 -21 4 -15 -5 -19 -4
-15 4 4 6 14 11 23 11 11 0 14 6 9 24 -3 14 -1 28 4 31 6 4 8 10 5 15 -3 5 -1
11 5 15 13 8 13 25 0 25 -5 0 -10 -5 -10 -11 0 -21 -26 -37 -43 -27 -13 6 -17
5 -17 -5 0 -17 -21 -27 -53 -26 l-22 0 22 9 c14 6 21 15 17 24 -3 8 0 17 7 22
9 5 10 2 6 -9 -3 -10 -3 -17 1 -17 14 0 33 63 22 74 -6 6 -10 19 -10 30 0 18
-1 19 -13 2 -11 -16 -14 -15 -35 13 -17 23 -29 30 -51 28 -30 -2 -49 -31 -30
-43 12 -7 11 -24 -1 -24 -5 0 -10 7 -10 15 0 21 -7 19 -33 -9 -13 -14 -35 -28
-50 -31 -15 -4 -30 -11 -33 -16 -8 -13 -24 -1 -24 19 0 9 15 25 32 35 29 16
30 20 15 28 -21 12 -22 29 -2 29 9 0 12 6 9 15 -4 8 -1 15 5 15 6 0 11 -5 11
-12 0 -9 3 -9 12 0 8 8 8 15 0 25 -14 17 -6 27 16 20 15 -4 15 -3 2 6 -12 8
-12 13 -2 23 10 10 15 10 23 -2 8 -11 9 -9 3 10 -3 14 -8 27 -10 28 -4 6 -63
-62 -64 -73 0 -6 -8 -21 -17 -35 -22 -32 -24 -60 -4 -53 9 3 1 -4 -17 -16 -41
-26 -46 -26 -32 0 7 11 8 24 4 27 -4 4 -9 1 -11 -6 -3 -6 -10 -9 -16 -5 -6 4
-8 0 -4 -10 3 -10 2 -17 -3 -17 -6 0 -10 -7 -10 -15 0 -8 5 -15 10 -15 6 0 10
-4 10 -10 0 -5 -7 -10 -15 -10 -8 0 -15 -4 -15 -9 0 -5 9 -7 20 -4 11 3 20 14
20 24 0 28 17 23 22 -6 3 -14 1 -25 -3 -25 -5 0 -9 -5 -9 -10 0 -6 -11 -23
-25 -38 -43 -46 -28 -56 24 -15 27 21 46 42 43 47 -2 5 1 7 7 5 7 -3 12 -8 12
-12 -1 -4 -1 -14 -1 -22 0 -8 -7 -15 -15 -15 -8 0 -15 -4 -15 -9 0 -5 -11 -12
-25 -15 -14 -4 -23 -11 -19 -17 3 -6 12 -8 20 -5 18 7 18 -3 -1 -48 -9 -20
-20 -34 -25 -31 -6 4 -10 -6 -10 -22 1 -24 2 -26 11 -10 6 9 14 15 20 12 15
-10 10 -21 -15 -34 -17 -10 -22 -19 -18 -34 5 -20 6 -20 15 6 10 31 27 36 27
8 0 -11 5 -23 10 -26 6 -3 10 -1 10 4 0 6 7 11 15 11 25 0 17 -17 -14 -30 -16
-6 -32 -18 -35 -26 -5 -12 0 -12 25 1 27 14 31 14 45 0 8 -8 20 -15 25 -15 5
0 9 -5 9 -11 0 -6 -7 -9 -15 -5 -9 3 -15 0 -15 -10 0 -8 -3 -13 -7 -11 -5 3
-9 -6 -9 -20 -2 -21 1 -23 25 -19 34 8 61 -8 43 -26 -9 -9 -12 -9 -12 5 0 20
-23 22 -42 4 -7 -8 -20 -16 -28 -19 -10 -3 -8 -6 8 -10 12 -4 22 -2 22 3 0 5
5 9 10 9 6 0 10 -11 10 -25 0 -18 7 -26 25 -31 29 -7 34 -24 8 -24 -15 0 -16
-2 -3 -10 10 -6 16 -6 18 0 5 13 22 13 22 1 0 -5 -10 -13 -22 -17 -13 -4 -28
-14 -34 -22 -12 -17 -7 -52 7 -52 14 0 10 -17 -7 -35 -11 -10 -25 -14 -40 -11
-16 4 -26 1 -33 -11 -10 -17 -10 -17 -11 -1 0 11 -5 15 -15 12 -9 -4 -15 0
-15 7 0 11 -2 11 -8 1 -11 -16 -42 -5 -43 17 -1 13 -2 12 -6 -3 -4 -15 -8 -14
-24 13 -19 31 -88 81 -112 81 -8 0 -26 9 -40 20 -14 11 -29 20 -34 20 -12 1
-118 146 -149 204 -44 82 -54 126 -65 266 -22 276 -59 382 -179 513 -34 37
-46 57 -36 57 9 0 16 -4 16 -10 0 -5 7 -7 16 -3 8 3 13 11 10 18 -6 16 18 27
39 19 8 -4 15 -1 15 6 0 7 7 10 15 6 10 -4 15 1 15 15 0 16 4 19 18 14 33 -14
62 -17 62 -7 0 6 -6 13 -12 15 -9 4 -10 6 -1 6 6 1 18 -6 27 -14 18 -18 28
-19 44 -3 15 15 72 20 72 6 0 -6 6 -8 14 -5 9 3 17 -3 21 -16 6 -18 8 -19 12
-5 2 9 13 20 24 23 10 3 28 7 38 10 16 5 19 1 18 -22 -1 -15 -6 -32 -12 -36
-11 -9 73 -3 115 8 19 5 22 4 10 -4 -9 -7 -10 -11 -3 -11 6 0 15 5 18 10 3 6
16 10 28 10 19 -1 20 -2 6 -13 -9 -7 -19 -23 -23 -37 -6 -21 -5 -22 4 -7 6 9
18 17 26 17 8 0 17 7 21 16 5 15 7 15 16 -1 6 -11 5 -21 -2 -28 -13 -13 -15
-37 -2 -37 5 0 12 10 15 23 6 20 7 21 17 4 10 -17 12 -17 28 2 25 28 32 26 18
-4 -7 -14 -15 -25 -19 -25 -5 0 -8 -4 -8 -10 0 -14 26 -12 42 3 7 6 24 13 38
15 14 1 20 -1 14 -5 -15 -11 -34 -49 -28 -56 10 -9 34 4 34 18 0 8 5 17 12 21
8 5 9 2 5 -9 -3 -9 -1 -19 5 -23 8 -5 9 5 5 34 -4 22 -3 43 2 46 5 3 9 0 8 -7
-1 -47 3 -58 23 -52 13 4 20 2 20 -7 0 -8 -9 -21 -20 -31 -23 -20 -27 -42 -5
-33 9 3 15 0 15 -10 0 -8 4 -13 10 -9 5 3 7 12 4 19 -4 9 3 14 20 14 32 0 56
18 56 43 0 9 6 24 13 31 8 7 16 20 20 28 5 13 6 13 6 0 1 -9 -5 -22 -11 -29
-11 -10 -8 -10 12 -3 25 10 27 14 15 45 -6 13 -3 16 9 11 9 -3 23 0 32 7 14
11 18 11 29 -4 16 -22 20 -21 22 3 1 11 -3 20 -8 20 -5 0 -7 11 -3 25 6 25
-10 36 -19 13 -3 -8 -6 -6 -6 5 -1 10 6 17 17 17 19 0 55 34 65 60 4 12 6 12
6 -2 1 -9 -10 -29 -23 -45 -17 -20 -22 -34 -16 -43 7 -12 10 -11 16 4 5 14 9
15 15 4 7 -10 9 -8 9 6 0 27 32 94 48 100 8 4 12 -6 12 -32 0 -24 3 -32 9 -23
6 9 11 10 15 2 4 -6 12 -11 17 -11 6 0 8 4 4 9 -3 5 -1 12 5 16 12 8 13 45 1
45 -5 0 -11 -6 -14 -12 -2 -7 -8 -10 -12 -5 -17 15 15 30 66 32 34 1 46 -1 35
-7 -8 -5 -13 -15 -9 -24 5 -13 8 -13 25 3 17 15 21 15 29 3 8 -12 10 -10 6 7
-5 24 17 51 27 34 3 -5 3 -11 -1 -14 -5 -2 -2 -2 5 0 8 1 20 3 27 3 18 0 15
42 -5 57 -9 8 -11 12 -3 13 6 0 14 -4 18 -10z m-305 -10 c0 -5 -5 -10 -11 -10
-5 0 -7 5 -4 10 3 6 8 10 11 10 2 0 4 -4 4 -10z m147 -22 c-3 -8 -6 -5 -6 6
-1 11 2 17 5 13 3 -3 4 -12 1 -19z m136 2 c3 -11 1 -18 -4 -14 -5 3 -9 12 -9
20 0 20 7 17 13 -6z m163 -7 c-10 -10 -19 5 -10 18 6 11 8 11 12 0 2 -7 1 -15
-2 -18z m-311 -13 c3 -5 1 -10 -4 -10 -6 0 -11 5 -11 10 0 6 2 10 4 10 3 0 8
-4 11 -10z m-915 -94 c0 -3 -4 -8 -10 -11 -5 -3 -10 -1 -10 4 0 6 5 11 10 11
6 0 10 -2 10 -4z m30 -6 c0 -5 -2 -10 -4 -10 -3 0 -8 5 -11 10 -3 6 -1 10 4
10 6 0 11 -4 11 -10z m-5083 -32 c-3 -8 -6 -5 -6 6 -1 11 2 17 5 13 3 -3 4
-12 1 -19z m5177 6 c19 -7 21 -30 4 -31 -7 0 -21 -4 -30 -8 -21 -8 -25 14 -6
33 14 14 12 14 32 6z m541 -44 c-10 -11 -20 -18 -23 -16 -5 6 21 35 32 36 5 0
1 -9 -9 -20z m-345 -6 c0 -8 -4 -12 -10 -9 -5 3 -10 10 -10 16 0 5 5 9 10 9 6
0 10 -7 10 -16z m104 -37 c-7 -19 -24 -23 -24 -6 0 6 -7 8 -16 5 -9 -3 -12 -2
-9 5 4 5 16 7 27 3 17 -5 20 -3 14 12 -5 14 -4 16 4 8 6 -6 8 -18 4 -27z m139
-49 c-7 -27 -22 -48 -34 -48 -15 0 -10 17 14 44 27 31 26 31 20 4z m843 -125
c-11 -12 -27 13 -20 32 7 17 8 17 17 -3 6 -12 7 -25 3 -29z m4 -73 c0 -5 -7
-10 -16 -10 -8 0 -12 5 -9 10 3 6 10 10 16 10 5 0 9 -4 9 -10z m30 -27 c0 -26
-16 -12 -18 15 -1 21 0 23 8 12 5 -8 10 -21 10 -27z m-902 -146 c-2 -13 2 -21
8 -20 8 1 10 -6 6 -19 -5 -19 -6 -19 -11 -5 -6 15 -7 15 -19 -3 -9 -15 -9 -20
-1 -20 7 0 2 -9 -11 -20 -13 -11 -25 -20 -28 -20 -3 0 3 9 13 20 15 16 15 20
3 20 -8 0 -20 -11 -28 -24 -7 -14 -18 -22 -27 -19 -10 4 -6 12 15 32 16 14 37
31 48 37 15 9 16 15 7 24 -8 9 -9 19 -2 32 13 24 31 13 27 -15z m859 -13 c-3
-3 -12 -4 -19 -1 -8 3 -5 6 6 6 11 1 17 -2 13 -5z m-937 -18 c0 -8 -4 -17 -9
-21 -12 -7 -24 12 -16 25 9 15 25 12 25 -4z m-40 -86 c0 -5 -4 -10 -10 -10 -5
0 -10 5 -10 10 0 6 5 10 10 10 6 0 10 -4 10 -10z m970 -19 c0 -6 -4 -13 -10
-16 -5 -3 -10 1 -10 9 0 9 5 16 10 16 6 0 10 -4 10 -9z m-1945 -21 c3 -5 21
-10 38 -11 18 0 26 -3 20 -6 -7 -2 -13 -14 -13 -26 1 -22 1 -22 21 2 17 21 22
22 30 10 5 -7 9 -26 9 -41 0 -16 5 -28 10 -28 6 0 10 -19 10 -42 1 -42 1 -43
15 -18 l13 25 11 -29 c8 -21 8 -32 0 -42 -8 -10 -5 -19 15 -37 14 -13 26 -31
26 -38 -1 -10 -4 -9 -11 4 -5 9 -14 17 -19 17 -17 0 -11 -26 11 -46 17 -16 22
-16 29 -4 8 12 10 10 10 -8 0 -12 10 -42 22 -65 12 -23 23 -46 23 -52 2 -19
-17 -34 -51 -41 -19 -3 -34 -11 -34 -16 0 -6 -7 -8 -15 -4 -8 3 -15 2 -15 -2
0 -5 -17 -14 -37 -21 -21 -7 -47 -16 -58 -21 -11 -4 -27 -11 -35 -14 -8 -3
-26 -13 -39 -23 -23 -17 -24 -17 -17 4 5 16 3 21 -11 19 -13 -1 -18 6 -18 27
1 15 -5 27 -11 27 -7 0 -15 14 -19 30 -4 17 -11 30 -16 30 -6 0 -8 8 -5 18 3
9 -1 30 -10 47 -10 19 -11 31 -5 33 16 5 13 22 -4 22 -8 0 -15 5 -15 10 0 6 7
13 15 16 25 10 17 24 -12 24 -22 0 -25 2 -13 10 11 8 12 12 3 18 -17 11 -4 52
15 52 12 0 11 4 -6 16 -27 19 -28 36 -2 59 15 13 17 22 10 36 -14 26 -13 30
13 28 30 -3 87 11 87 22 0 5 8 10 18 10 16 1 16 2 0 6 -10 2 -18 9 -18 14 0
12 27 12 35 -1z m164 -98 c-19 -7 -39 8 -39 29 0 21 0 21 25 -2 13 -13 20 -26
14 -27z m1051 24 c0 -3 -4 -8 -10 -11 -5 -3 -10 -1 -10 4 0 6 5 11 10 11 6 0
10 -2 10 -4z m-268 -58 c-6 -6 -15 -8 -19 -4 -4 4 -1 11 7 16 19 12 27 3 12
-12z m-27 -18 c3 -5 1 -10 -4 -10 -6 0 -11 5 -11 10 0 6 2 10 4 10 3 0 8 -4
11 -10z m300 -20 c3 -5 1 -10 -4 -10 -6 0 -11 5 -11 10 0 6 2 10 4 10 3 0 8
-4 11 -10z m-968 -162 c-3 -8 -6 -5 -6 6 -1 11 2 17 5 13 3 -3 4 -12 1 -19z
m1028 3 c7 -12 -31 -24 -47 -15 -8 5 -6 10 8 15 26 10 32 10 39 0z m-28 -63
c-3 -8 -6 -5 -6 6 -1 11 2 17 5 13 3 -3 4 -12 1 -19z m-4567 2 c0 -5 -4 -10
-10 -10 -5 0 -10 5 -10 10 0 6 5 10 10 10 6 0 10 -4 10 -10z m4560 -31 c0 -6
-4 -7 -10 -4 -5 3 -10 11 -10 16 0 6 5 7 10 4 6 -3 10 -11 10 -16z m37 -1 c-3
-8 -6 -5 -6 6 -1 11 2 17 5 13 3 -3 4 -12 1 -19z m-246 -1 c-7 -7 -18 -7 -33
0 -22 10 -21 11 10 10 22 0 30 -3 23 -10z m-1086 -177 c-3 -5 -11 -10 -16 -10
-6 0 -7 5 -4 10 3 6 11 10 16 10 6 0 7 -4 4 -10z m296 -67 c-8 -15 -10 -10
-11 23 0 22 3 44 8 48 11 12 14 -52 3 -71z m9876 -270 c-3 -3 -11 -2 -17 2 -9
6 -9 10 1 16 14 8 27 -7 16 -18z m-9856 -119 c-7 -31 -9 -34 -10 -12 -1 27 9
62 15 55 3 -2 0 -22 -5 -43z m-1968 -9 c-7 -21 -13 -19 -13 6 0 11 4 18 10 14
5 -3 7 -12 3 -20z m1957 -197 c-18 -105 -23 -75 -8 48 10 81 14 98 16 65 2
-24 -2 -75 -8 -113z m-21 33 c0 -3 -4 -15 -9 -26 -6 -13 -9 -15 -9 -5 -1 13
-3 13 -12 0 -9 -12 -10 -12 -5 3 3 10 6 22 6 26 0 4 7 8 15 8 8 0 15 -3 14 -6z
m-2502 -33 c-3 -7 -5 -2 -5 12 0 14 2 19 5 13 2 -7 2 -19 0 -25z m2435 -100
c-8 -8 -9 -4 -5 13 4 13 8 18 11 10 2 -7 -1 -18 -6 -23z m-3352 -569 c0 -5 -4
-9 -10 -9 -5 0 -10 7 -10 16 0 8 5 12 10 9 6 -3 10 -10 10 -16z m-50 -59 c0
-5 -2 -10 -4 -10 -3 0 -8 5 -11 10 -3 6 -1 10 4 10 6 0 11 -4 11 -10z m-160
-170 c0 -5 -2 -10 -4 -10 -3 0 -8 5 -11 10 -3 6 -1 10 4 10 6 0 11 -4 11 -10z
m13645 -510 c-3 -5 -15 -10 -26 -10 -10 0 -19 5 -19 10 0 6 12 10 26 10 14 0
23 -4 19 -10z m-14175 -90 c0 -5 -5 -10 -11 -10 -5 0 -7 5 -4 10 3 6 8 10 11
10 2 0 4 -4 4 -10z m14035 -90 c3 -5 1 -10 -4 -10 -6 0 -11 5 -11 10 0 6 2 10
4 10 3 0 8 -4 11 -10z m-14238 -152 c-3 -8 -6 -5 -6 6 -1 11 2 17 5 13 3 -3 4
-12 1 -19z m-50 -50 c-3 -8 -6 -5 -6 6 -1 11 2 17 5 13 3 -3 4 -12 1 -19z
m13438 2 c3 -5 1 -10 -4 -10 -6 0 -11 5 -11 10 0 6 2 10 4 10 3 0 8 -4 11 -10z
m385 -70 c0 -5 -5 -10 -11 -10 -5 0 -7 5 -4 10 3 6 8 10 11 10 2 0 4 -4 4 -10z
m-115 -20 c15 -6 11 -8 -16 -7 -21 1 -35 5 -32 10 5 9 22 8 48 -3z m-13885
-170 c0 -5 -2 -10 -4 -10 -3 0 -8 5 -11 10 -3 6 -1 10 4 10 6 0 11 -4 11 -10z
m-220 -199 c0 -5 -6 -14 -14 -20 -12 -10 -13 -8 -9 8 5 21 23 30 23 12z m-162
-188 c-10 -2 -18 -14 -19 -26 0 -12 -3 -16 -6 -9 -8 20 5 42 24 41 17 -1 17
-2 1 -6z m-338 -623 c0 -5 -2 -10 -4 -10 -3 0 -8 5 -11 10 -3 6 -1 10 4 10 6
0 11 -4 11 -10z m-780 -584 c0 -3 -4 -8 -10 -11 -5 -3 -10 -1 -10 4 0 6 5 11
10 11 6 0 10 -2 10 -4z"/>
<path d="M6601 11875 c1 -40 1 -40 11 -12 7 21 7 32 -1 40 -8 8 -11 0 -10 -28z"/>
<path d="M6650 11780 c6 -11 8 -26 4 -32 -4 -7 -3 -8 4 -4 18 11 15 56 -3 56
-13 0 -14 -4 -5 -20z"/>
<path d="M7026 11368 c5 -7 9 -17 9 -23 0 -5 9 -10 20 -10 11 0 27 -4 35 -9
13 -9 13 -8 1 8 -8 9 -20 15 -26 12 -7 -2 -12 3 -11 12 0 9 -7 18 -18 20 -13
3 -16 0 -10 -10z"/>
<path d="M7017 11160 c-3 -11 -1 -20 4 -20 5 0 9 9 9 20 0 11 -2 20 -4 20 -2
0 -6 -9 -9 -20z"/>
<path d="M6970 11160 c0 -5 5 -10 10 -10 6 0 10 5 10 10 0 6 -4 10 -10 10 -5
0 -10 -4 -10 -10z"/>
<path d="M6918 11135 c2 -14 8 -25 13 -25 5 0 8 11 7 25 -1 14 -8 25 -14 25
-7 0 -9 -10 -6 -25z"/>
<path d="M6950 11124 c0 -8 5 -12 10 -9 6 4 8 11 5 16 -9 14 -15 11 -15 -7z"/>
<path d="M6859 11028 c-3 -34 0 -48 8 -48 7 0 12 3 11 8 0 4 2 15 7 26 4 10 4
21 -2 25 -6 3 -12 13 -15 21 -3 8 -7 -6 -9 -32z"/>
<path d="M6030 11028 c0 -12 -8 -26 -17 -33 -16 -12 -14 -13 9 -8 17 3 25 10
22 18 -3 8 3 15 15 17 20 3 19 4 -4 15 -22 10 -25 9 -25 -9z"/>
<path d="M6825 11037 c-4 -10 -5 -21 -1 -24 10 -10 18 4 13 24 -4 17 -4 17
-12 0z"/>
<path d="M5965 10970 c-3 -5 -1 -10 4 -10 6 0 11 5 11 10 0 6 -2 10 -4 10 -3
0 -8 -4 -11 -10z"/>
<path d="M5869 10920 l23 -20 -31 4 c-17 2 -28 -1 -25 -5 3 -5 -5 -10 -18 -11
-13 -1 -30 -2 -38 -4 -8 -1 -21 -2 -28 -3 -7 -1 -11 -4 -9 -8 3 -5 -1 -14 -9
-20 -14 -14 -30 0 -19 17 3 6 1 10 -4 10 -6 0 -11 -9 -11 -20 0 -11 -5 -20
-11 -20 -5 0 -7 5 -4 10 3 6 2 10 -3 10 -13 0 -24 -29 -15 -43 10 -17 13 -57
3 -57 -5 0 -10 10 -12 22 -2 12 -8 23 -15 25 -16 6 -28 -38 -13 -47 8 -5 7
-11 -4 -23 -9 -9 -12 -18 -7 -21 5 -4 11 0 13 6 3 7 17 -6 31 -29 29 -46 35
-69 15 -57 -8 5 -6 -2 3 -16 9 -14 27 -28 40 -31 13 -4 17 -7 10 -8 -12 -1
-12 -4 -3 -13 18 -18 15 -31 -5 -24 -16 5 -15 4 1 -7 63 -41 83 -67 52 -67 -8
0 -16 -6 -19 -13 -4 -10 2 -13 18 -9 26 5 43 -14 26 -31 -8 -8 -7 -15 4 -27
13 -15 13 -21 -5 -58 -11 -22 -20 -46 -20 -52 0 -6 -4 -9 -8 -6 -4 2 -9 -5 -9
-17 -1 -12 -7 -23 -13 -25 -5 -2 -10 -10 -10 -18 0 -8 -11 -27 -25 -42 -14
-15 -25 -34 -25 -44 0 -9 -5 -20 -10 -23 -6 -4 -10 -18 -9 -33 1 -28 -5 -62
-21 -122 -12 -44 -12 -59 0 -40 5 8 12 11 17 7 4 -4 2 -17 -5 -27 -7 -11 -8
-20 -3 -20 5 0 14 12 19 28 6 15 11 21 11 15 1 -7 8 -13 17 -13 11 0 14 -6 8
-22 -6 -20 -5 -21 9 -10 13 11 17 11 24 -2 4 -8 13 -15 18 -15 6 0 11 -9 13
-20 3 -21 54 -47 72 -36 7 4 10 16 7 26 -6 21 13 25 42 9 14 -7 24 -4 41 15
17 18 19 25 9 26 -8 0 -4 4 9 10 13 5 20 13 17 19 -3 5 -3 16 2 23 14 22 12
38 -6 49 -14 9 -16 18 -11 48 4 20 10 42 14 48 4 6 2 22 -5 34 -11 20 -8 25
22 50 18 15 37 28 41 28 5 0 22 12 38 26 16 15 40 32 52 38 13 6 23 17 23 24
0 7 11 18 25 25 14 7 25 17 26 22 2 25 18 45 35 45 10 0 19 -5 19 -11 0 -6 6
-9 14 -6 10 4 16 -2 18 -16 2 -16 10 -22 27 -22 13 0 26 -6 28 -13 3 -8 -1
-10 -13 -5 -12 4 -15 3 -10 -5 10 -16 22 -15 40 4 9 8 16 12 16 7 0 -4 4 -2 9
6 12 19 2 43 -15 37 -8 -3 -14 -1 -14 4 0 6 4 10 9 10 5 0 11 9 14 21 4 15 11
19 24 15 11 -3 28 0 39 8 18 14 18 15 -10 22 -28 7 -75 49 -76 67 0 5 9 5 20
2 32 -10 24 13 -22 60 -41 41 -119 85 -152 85 -8 0 -18 5 -21 10 -4 6 -11 8
-16 5 -5 -4 -17 1 -26 10 -9 9 -24 14 -34 12 -11 -3 -19 -1 -19 4 0 5 -7 9
-15 9 -8 0 -15 -4 -15 -9 0 -5 -9 -7 -20 -4 -11 3 -20 0 -20 -6 0 -6 -8 -11
-17 -12 -11 0 -13 -3 -5 -6 6 -2 12 -14 11 -26 0 -21 -1 -21 -8 -3 -5 13 -10
16 -15 8 -14 -23 -54 9 -70 55 -14 40 -14 47 0 69 9 13 14 31 10 39 -3 9 -2
14 3 11 11 -7 23 22 14 36 -4 7 -1 8 6 4 8 -5 14 0 18 13 3 11 16 27 29 36 24
15 32 35 15 35 -5 0 -16 -7 -24 -15 -21 -20 -30 -5 -10 17 9 10 13 18 9 18 -4
0 -17 -11 -29 -24 -17 -18 -25 -21 -34 -12 -29 27 -43 36 -55 36 -7 -1 -3 -9
11 -20z m-194 -201 c11 -17 -1 -21 -15 -4 -8 9 -8 15 -2 15 6 0 14 -5 17 -11z
m205 -81 c0 -6 -6 -5 -15 2 -8 7 -15 14 -15 16 0 2 7 1 15 -2 8 -4 15 -11 15
-16z m286 -35 c10 -10 19 -17 21 -15 13 10 36 -4 57 -35 27 -39 27 -55 1 -33
-8 7 -15 10 -15 7 0 -3 -27 7 -60 24 -33 16 -73 32 -90 36 -24 4 -28 8 -19 19
16 20 84 18 105 -3z m144 -97 c0 -11 -19 -15 -25 -6 -3 5 1 10 9 10 9 0 16 -2
16 -4z m-152 -71 c1 -1 -3 -14 -9 -29 -12 -25 -44 -44 -56 -32 -11 11 -5 59 8
67 12 7 46 4 57 -6z m37 -65 c3 -5 1 -10 -4 -10 -6 0 -11 5 -11 10 0 6 2 10 4
10 3 0 8 -4 11 -10z m135 -42 c0 -6 -3 -8 -7 -5 -3 4 -12 2 -20 -4 -8 -8 -13
-8 -13 -1 0 10 15 19 33 21 4 1 7 -4 7 -11z m-225 -8 c3 -5 1 -10 -4 -10 -6 0
-11 5 -11 10 0 6 2 10 4 10 3 0 8 -4 11 -10z m36 -23 c-13 -13 -26 -3 -16 12
3 6 11 8 17 5 6 -4 6 -10 -1 -17z m-66 -47 c4 -6 -6 -10 -22 -10 -22 0 -25 2
-13 10 19 12 27 12 35 0z m-105 -34 c0 -3 -4 -8 -10 -11 -5 -3 -10 -1 -10 4 0
6 5 11 10 11 6 0 10 -2 10 -4z"/>
<path d="M6278 10883 c6 -2 18 -2 25 0 6 3 1 5 -13 5 -14 0 -19 -2 -12 -5z"/>
<path d="M6512 10690 c0 -14 2 -19 5 -12 2 6 2 18 0 25 -3 6 -5 1 -5 -13z"/>
<path d="M5600 10660 c-13 -8 -12 -10 4 -10 11 0 31 -10 44 -22 26 -23 21 -9
-7 24 -18 21 -21 21 -41 8z"/>
<path d="M6410 10660 c0 -5 5 -10 10 -10 6 0 10 5 10 10 0 6 -4 10 -10 10 -5
0 -10 -4 -10 -10z"/>
<path d="M6270 10630 c0 -5 5 -10 10 -10 6 0 10 5 10 10 0 6 -4 10 -10 10 -5
0 -10 -4 -10 -10z"/>
<path d="M6520 10613 c0 -13 5 -23 10 -23 13 0 13 11 0 30 -8 12 -10 11 -10
-7z"/>
<path d="M6545 10520 c-3 -5 -1 -10 4 -10 6 0 11 5 11 10 0 6 -2 10 -4 10 -3
0 -8 -4 -11 -10z"/>
<path d="M6970 10364 c0 -3 7 -12 16 -21 12 -12 20 -13 37 -5 21 10 21 11 -5
11 -16 1 -28 6 -28 11 0 6 -4 10 -10 10 -5 0 -10 -3 -10 -6z"/>
<path d="M6390 10341 c0 -5 7 -11 15 -15 9 -3 15 0 15 9 0 8 -7 15 -15 15 -8
0 -15 -4 -15 -9z"/>
<path d="M6352 10250 c0 -14 2 -19 5 -12 2 6 2 18 0 25 -3 6 -5 1 -5 -13z"/>
<path d="M7060 10259 c0 -5 5 -7 10 -4 6 3 10 8 10 11 0 2 -4 4 -10 4 -5 0
-10 -5 -10 -11z"/>
<path d="M7070 10200 c0 -5 5 -10 11 -10 5 0 7 5 4 10 -3 6 -8 10 -11 10 -2 0
-4 -4 -4 -10z"/>
<path d="M7070 10130 c0 -5 5 -10 11 -10 5 0 7 5 4 10 -3 6 -8 10 -11 10 -2 0
-4 -4 -4 -10z"/>
<path d="M6940 9973 c0 -13 5 -23 10 -23 13 0 13 11 0 30 -8 12 -10 11 -10 -7z"/>
<path d="M5410 9739 c0 -5 5 -7 10 -4 6 3 10 8 10 11 0 2 -4 4 -10 4 -5 0 -10
-5 -10 -11z"/>
<path d="M6750 9649 c0 -5 5 -7 10 -4 6 3 10 8 10 11 0 2 -4 4 -10 4 -5 0 -10
-5 -10 -11z"/>
<path d="M5105 9580 c3 -5 11 -10 16 -10 6 0 7 5 4 10 -3 6 -11 10 -16 10 -6
0 -7 -4 -4 -10z"/>
<path d="M6625 9501 c-3 -5 -1 -12 5 -16 5 -3 10 1 10 9 0 18 -6 21 -15 7z"/>
<path d="M5200 9449 c0 -5 5 -7 10 -4 6 3 10 8 10 11 0 2 -4 4 -10 4 -5 0 -10
-5 -10 -11z"/>
<path d="M6720 9248 c0 -31 -3 -39 -10 -28 -8 13 -10 12 -10 -2 0 -21 11 -23
28 -6 6 6 15 9 19 5 4 -4 1 -13 -5 -19 -7 -7 -12 -21 -13 -32 0 -19 -1 -19
-10 2 -5 13 -13 20 -19 17 -6 -4 -4 -17 5 -35 19 -36 19 -44 0 -36 -9 3 -15 0
-15 -9 0 -23 28 -18 44 8 18 29 31 117 17 117 -6 0 -11 11 -11 24 0 14 -4 28
-10 31 -6 4 -10 -11 -10 -37z"/>
<path d="M5335 9100 c-3 -5 -1 -10 4 -10 6 0 11 5 11 10 0 6 -2 10 -4 10 -3 0
-8 -4 -11 -10z"/>
<path d="M6680 9066 c0 -9 5 -16 10 -16 6 0 10 4 10 9 0 6 -4 13 -10 16 -5 3
-10 -1 -10 -9z"/>
<path d="M6701 8994 c0 -11 3 -14 6 -6 3 7 2 16 -1 19 -3 4 -6 -2 -5 -13z"/>
<path d="M6660 8970 c0 -5 5 -10 10 -10 6 0 10 5 10 10 0 6 -4 10 -10 10 -5 0
-10 -4 -10 -10z"/>
<path d="M6667 8918 c-2 -7 -1 -22 4 -33 6 -16 8 -14 8 13 1 33 -4 41 -12 20z"/>
<path d="M6620 8876 c0 -8 5 -18 10 -21 6 -3 10 3 10 14 0 12 -4 21 -10 21 -5
0 -10 -6 -10 -14z"/>
<path d="M6565 8770 c3 -5 8 -10 11 -10 2 0 4 5 4 10 0 6 -5 10 -11 10 -5 0
-7 -4 -4 -10z"/>
<path d="M6580 8630 c0 -6 7 -10 15 -10 8 0 15 2 15 4 0 2 -7 6 -15 10 -8 3
-15 1 -15 -4z"/>
<path d="M6550 8621 c0 -5 5 -13 10 -16 6 -3 10 -2 10 4 0 5 -4 13 -10 16 -5
3 -10 2 -10 -4z"/>
<path d="M6420 8524 c0 -8 -4 -12 -10 -9 -6 3 -7 -1 -4 -9 9 -24 19 -19 22 9
1 14 0 25 -3 25 -3 0 -5 -7 -5 -16z"/>
<path d="M6181 8464 c0 -11 3 -14 6 -6 3 7 2 16 -1 19 -3 4 -6 -2 -5 -13z"/>
<path d="M5977 8314 c-8 -8 1 -24 14 -24 5 0 9 7 9 15 0 15 -12 20 -23 9z"/>
<path d="M6040 8299 c0 -5 5 -7 10 -4 6 3 10 8 10 11 0 2 -4 4 -10 4 -5 0 -10
-5 -10 -11z"/>
<path d="M6011 8284 c0 -11 3 -14 6 -6 3 7 2 16 -1 19 -3 4 -6 -2 -5 -13z"/>
<path d="M6000 8240 c0 -5 5 -10 11 -10 5 0 7 5 4 10 -3 6 -8 10 -11 10 -2 0
-4 -4 -4 -10z"/>
<path d="M6050 8245 c0 -19 18 -38 29 -31 6 4 11 12 11 17 0 6 -5 7 -11 3 -6
-3 -15 0 -20 7 -5 8 -9 10 -9 4z"/>
<path d="M6080 8200 c0 -5 7 -10 15 -10 8 0 15 5 15 10 0 6 -7 10 -15 10 -8 0
-15 -4 -15 -10z"/>
<path d="M5920 8189 c0 -5 5 -7 10 -4 6 3 10 8 10 11 0 2 -4 4 -10 4 -5 0 -10
-5 -10 -11z"/>
<path d="M5930 8130 c0 -5 5 -10 10 -10 6 0 10 5 10 10 0 6 -4 10 -10 10 -5 0
-10 -4 -10 -10z"/>
<path d="M5885 8120 c-3 -6 1 -13 9 -16 25 -10 8 -24 -30 -24 -30 0 -34 -3
-34 -25 0 -25 14 -33 25 -15 3 6 1 10 -4 10 -6 0 -11 5 -11 10 0 6 20 10 44
10 51 0 62 10 44 40 -14 22 -33 26 -43 10z"/>
<path d="M5746 7961 c-4 -5 -2 -12 3 -15 5 -4 12 -2 15 3 4 5 2 12 -3 15 -5 4
-12 2 -15 -3z"/>
<path d="M7291 11514 c0 -11 3 -14 6 -6 3 7 2 16 -1 19 -3 4 -6 -2 -5 -13z"/>
<path d="M7170 11516 c0 -2 8 -10 18 -17 15 -13 16 -12 3 4 -13 16 -21 21 -21
13z"/>
<path d="M7712 11170 c0 -14 2 -19 5 -12 2 6 2 18 0 25 -3 6 -5 1 -5 -13z"/>
<path d="M1674 9025 c-3 -8 -4 -20 -2 -27 3 -7 7 -1 10 15 6 29 1 36 -8 12z"/>
<path d="M1468 8993 c7 -3 16 -2 19 1 4 3 -2 6 -13 5 -11 0 -14 -3 -6 -6z"/>
<path d="M1380 8986 c0 -2 16 -6 35 -8 19 -2 35 0 35 4 0 4 -16 8 -35 8 -19 0
-35 -2 -35 -4z"/>
<path d="M1665 8951 c-3 -5 -1 -12 5 -16 5 -3 10 1 10 9 0 18 -6 21 -15 7z"/>
<path d="M1095 8670 c-3 -5 -1 -10 4 -10 6 0 11 5 11 10 0 6 -2 10 -4 10 -3 0
-8 -4 -11 -10z"/>
<path d="M1880 7370 c0 -5 7 -10 16 -10 8 0 12 5 9 10 -3 6 -10 10 -16 10 -5
0 -9 -4 -9 -10z"/>
<path d="M1900 7331 c0 -6 5 -13 10 -16 6 -3 10 1 10 9 0 9 -4 16 -10 16 -5 0
-10 -4 -10 -9z"/>
<path d="M1308 7045 c2 -14 6 -25 8 -25 2 0 4 11 4 25 0 14 -4 25 -9 25 -4 0
-6 -11 -3 -25z"/>
<path d="M8735 9260 c-3 -5 1 -10 9 -10 8 0 18 5 21 10 3 6 -1 10 -9 10 -8 0
-18 -4 -21 -10z"/>
<path d="M8653 9246 c3 -8 1 -16 -6 -19 -6 -2 15 -2 47 0 59 2 92 13 43 13
-14 0 -29 5 -33 11 -4 8 -9 7 -15 -2 -6 -10 -9 -11 -9 -1 0 6 -7 12 -16 12
-10 0 -14 -6 -11 -14z"/>
<path d="M8130 7144 c0 -8 5 -12 10 -9 6 3 10 10 10 16 0 5 -4 9 -10 9 -5 0
-10 -7 -10 -16z"/>
<path d="M8162 7110 c0 -14 2 -19 5 -12 2 6 2 18 0 25 -3 6 -5 1 -5 -13z"/>
<path d="M7906 7088 c-11 -42 -5 -53 9 -19 18 39 18 41 6 41 -5 0 -11 -10 -15
-22z"/>
<path d="M7950 7080 c0 -5 5 -10 11 -10 5 0 7 5 4 10 -3 6 -8 10 -11 10 -2 0
-4 -4 -4 -10z"/>
<path d="M8090 7059 c0 -5 5 -7 10 -4 6 3 10 8 10 11 0 2 -4 4 -10 4 -5 0 -10
-5 -10 -11z"/>
<path d="M8247 7030 c-8 -22 -11 -40 -6 -40 5 0 9 6 9 13 0 6 7 24 14 40 8 15
11 27 7 27 -4 0 -15 -18 -24 -40z"/>
<path d="M8120 7034 c0 -8 5 -12 10 -9 6 3 10 10 10 16 0 5 -4 9 -10 9 -5 0
-10 -7 -10 -16z"/>
<path d="M6886 7021 c-9 -14 5 -19 34 -10 14 4 20 7 13 8 -6 1 -18 4 -26 7 -8
3 -18 1 -21 -5z"/>
<path d="M7013 7023 c-13 -5 -19 -33 -7 -33 3 0 12 6 20 14 23 23 17 32 -13
19z"/>
<path d="M7651 6921 c-6 -10 -7 -21 -4 -25 9 -8 33 14 33 30 0 20 -18 17 -29
-5z"/>
<path d="M7803 6895 c-10 -27 6 -30 30 -7 l21 22 -22 0 c-12 0 -25 -7 -29 -15z"/>
<path d="M7280 6875 c0 -8 2 -15 4 -15 2 0 6 7 10 15 3 8 1 15 -4 15 -6 0 -10
-7 -10 -15z"/>
<path d="M7675 6881 c-3 -5 -1 -12 5 -16 5 -3 10 1 10 9 0 18 -6 21 -15 7z"/>
<path d="M7630 6870 c0 -5 5 -10 10 -10 6 0 10 5 10 10 0 6 -4 10 -10 10 -5 0
-10 -4 -10 -10z"/>
<path d="M7594 6854 c-4 -10 -10 -21 -13 -24 -3 -3 -12 -16 -19 -28 -12 -21
-11 -23 4 -20 9 1 23 19 29 38 8 22 14 30 17 20 3 -8 8 -13 11 -10 3 3 -1 14
-9 24 -13 19 -14 19 -20 0z"/>
<path d="M7403 6825 c-8 -23 4 -30 22 -12 19 20 19 27 0 27 -9 0 -18 -7 -22
-15z"/>
<path d="M7317 6799 c-10 -11 -16 -24 -13 -27 6 -6 35 27 36 41 0 11 -4 9 -23
-14z"/>
<path d="M7421 6776 c-15 -8 -25 -24 -27 -42 l-3 -29 15 28 c8 15 19 27 25 27
6 0 7 -4 4 -10 -4 -6 1 -7 11 -3 11 4 13 8 6 11 -7 2 -12 8 -12 13 0 4 7 6 15
3 8 -4 15 -1 15 5 0 15 -19 13 -49 -3z"/>
<path d="M7515 6779 c-4 -6 -13 -8 -21 -5 -8 3 -14 -1 -14 -11 0 -9 -7 -24
-16 -34 -9 -10 -14 -24 -11 -31 2 -8 13 2 26 23 12 20 31 39 41 42 11 3 20 10
20 16 0 14 -17 14 -25 0z"/>
<path d="M7360 6744 c0 -9 -9 -18 -20 -21 -11 -3 -20 -9 -20 -14 0 -16 19 -10
40 13 22 24 26 38 10 38 -5 0 -10 -7 -10 -16z"/>
<path d="M7557 6703 c-10 -19 -18 -67 -9 -58 10 11 25 65 18 65 -3 0 -7 -3 -9
-7z"/>
<path d="M7476 6682 c-4 -7 -2 -12 5 -12 8 0 8 -4 -1 -15 -16 -19 -1 -19 24 0
16 12 17 15 4 15 -9 0 -18 5 -20 12 -3 9 -6 9 -12 0z"/>
<path d="M7630 6680 c0 -5 5 -10 10 -10 6 0 10 5 10 10 0 6 -4 10 -10 10 -5 0
-10 -4 -10 -10z"/>
<path d="M8290 6659 c0 -5 5 -7 10 -4 6 3 10 8 10 11 0 2 -4 4 -10 4 -5 0 -10
-5 -10 -11z"/>
<path d="M8330 6655 c0 -8 2 -15 4 -15 2 0 6 7 10 15 3 8 1 15 -4 15 -6 0 -10
-7 -10 -15z"/>
<path d="M7650 6640 c0 -5 5 -10 10 -10 6 0 10 5 10 10 0 6 -4 10 -10 10 -5 0
-10 -4 -10 -10z"/>
<path d="M7580 6620 c0 -19 3 -21 12 -12 9 9 9 15 0 24 -9 9 -12 7 -12 -12z"/>
<path d="M7433 6614 c-3 -11 -11 -22 -17 -26 -6 -4 -7 -10 -3 -14 4 -4 17 2
30 13 12 11 28 18 35 16 6 -3 12 0 12 6 0 6 -4 11 -9 11 -5 0 -16 3 -25 6 -10
4 -18 -1 -23 -12z"/>
<path d="M7287 6596 c-4 -10 -1 -13 8 -9 8 3 12 9 9 14 -7 12 -11 11 -17 -5z"/>
<path d="M7550 6593 c0 -5 4 -15 10 -23 11 -18 25 -7 17 15 -6 15 -27 21 -27
8z"/>
<path d="M7235 6570 c-3 -5 -1 -10 4 -10 6 0 11 5 11 10 0 6 -2 10 -4 10 -3 0
-8 -4 -11 -10z"/>
<path d="M7404 6545 c-4 -8 -12 -15 -20 -15 -7 0 -17 -7 -22 -16 -5 -9 -12
-15 -15 -15 -4 1 -7 -1 -7 -4 0 -15 58 16 84 44 17 19 17 21 2 21 -9 0 -19 -7
-22 -15z"/>
<path d="M7210 6520 c-7 -13 -7 -20 -1 -20 6 0 15 9 21 20 7 13 7 20 1 20 -6
0 -15 -9 -21 -20z"/>
<path d="M7620 6520 c-13 -8 -12 -10 3 -10 9 0 17 5 17 10 0 12 -1 12 -20 0z"/>
<path d="M7240 6424 c0 -8 5 -12 10 -9 6 3 10 10 10 16 0 5 -4 9 -10 9 -5 0
-10 -7 -10 -16z"/>
<path d="M7210 6380 c0 -5 5 -10 10 -10 6 0 10 5 10 10 0 6 -4 10 -10 10 -5 0
-10 -4 -10 -10z"/>
<path d="M8321 6328 c-1 -16 -10 -37 -22 -49 -11 -11 -18 -23 -15 -27 4 -3 14
5 23 17 12 18 17 20 24 10 11 -18 10 15 -1 51 l-8 25 -1 -27z"/>
<path d="M7266 6332 c-3 -5 1 -15 9 -22 16 -14 20 -3 6 19 -5 8 -11 9 -15 3z"/>
<path d="M7710 6200 c0 -11 4 -20 8 -20 4 0 8 9 9 20 1 11 -2 20 -8 20 -5 0
-9 -9 -9 -20z"/>
<path d="M7725 6100 c-3 -5 -1 -10 4 -10 6 0 11 5 11 10 0 6 -2 10 -4 10 -3 0
-8 -4 -11 -10z"/>
<path d="M7287 6073 c-3 -5 8 -8 25 -9 20 -1 25 2 16 7 -16 11 -35 11 -41 2z"/>
<path d="M7186 5962 c-3 -6 -1 -14 5 -17 14 -9 20 -2 10 14 -6 8 -11 9 -15 3z"/>
<path d="M7080 5920 c0 -5 5 -10 10 -10 6 0 10 5 10 10 0 6 -4 10 -10 10 -5 0
-10 -4 -10 -10z"/>
<path d="M6585 6040 c-3 -5 -1 -10 4 -10 6 0 11 5 11 10 0 6 -2 10 -4 10 -3 0
-8 -4 -11 -10z"/>
<path d="M6674 5941 c4 -5 0 -12 -6 -14 -8 -4 -9 -6 -2 -6 6 -1 17 6 24 14 10
12 9 15 -4 15 -10 0 -15 -4 -12 -9z"/>
<path d="M6610 5909 c0 -5 5 -7 10 -4 6 3 10 8 10 11 0 2 -4 4 -10 4 -5 0 -10
-5 -10 -11z"/>
<path d="M3055 5930 c3 -5 12 -7 20 -3 21 7 19 13 -6 13 -11 0 -18 -4 -14 -10z"/>
<path d="M3295 5610 c-3 -5 -1 -10 4 -10 6 0 11 5 11 10 0 6 -2 10 -4 10 -3 0
-8 -4 -11 -10z"/>
<path d="M4631 5294 c0 -11 3 -14 6 -6 3 7 2 16 -1 19 -3 4 -6 -2 -5 -13z"/>
<path d="M3600 4846 c0 -9 5 -16 10 -16 6 0 10 4 10 9 0 6 -4 13 -10 16 -5 3
-10 -1 -10 -9z"/>
<path d="M15168 4663 c7 -3 16 -2 19 1 4 3 -2 6 -13 5 -11 0 -14 -3 -6 -6z"/>
<path d="M3300 4565 c0 -8 5 -15 10 -15 6 0 10 7 10 15 0 8 -4 15 -10 15 -5 0
-10 -7 -10 -15z"/>
<path d="M17045 4519 c5 -15 4 -19 -4 -15 -14 9 -10 -15 4 -27 6 -6 6 -10 -3
-14 -6 -2 -9 -10 -5 -16 4 -7 8 -32 9 -57 2 -59 2 -60 14 -60 6 0 10 42 10
105 0 89 -2 105 -16 105 -11 0 -14 -6 -9 -21z"/>
<path d="M17040 4310 c0 -5 7 -10 15 -10 8 0 15 5 15 10 0 6 -7 10 -15 10 -8
0 -15 -4 -15 -10z"/>
<path d="M17046 4275 c-3 -9 0 -15 9 -15 8 0 15 7 15 15 0 8 -4 15 -9 15 -5 0
-11 -7 -15 -15z"/>
<path d="M1785 4120 c-3 -5 3 -10 15 -10 12 0 18 5 15 10 -3 6 -10 10 -15 10
-5 0 -12 -4 -15 -10z"/>
<path d="M2858 4093 c7 -3 16 -2 19 1 4 3 -2 6 -13 5 -11 0 -14 -3 -6 -6z"/>
<path d="M2655 3880 c-3 -5 -1 -10 4 -10 6 0 11 5 11 10 0 6 -2 10 -4 10 -3 0
-8 -4 -11 -10z"/>
<path d="M2401 3584 c0 -11 3 -14 6 -6 3 7 2 16 -1 19 -3 4 -6 -2 -5 -13z"/>
<path d="M1878 2993 c7 -3 16 -2 19 1 4 3 -2 6 -13 5 -11 0 -14 -3 -6 -6z"/>
<path d="M1848 2973 c7 -3 16 -2 19 1 4 3 -2 6 -13 5 -11 0 -14 -3 -6 -6z"/>
<path d="M1836 2935 c4 -8 11 -15 16 -15 6 0 5 6 -2 15 -7 8 -14 15 -16 15 -2
0 -1 -7 2 -15z"/>
<path d="M1616 2655 c4 -8 10 -15 15 -15 5 0 9 7 9 15 0 8 -7 15 -15 15 -9 0
-12 -6 -9 -15z"/>
<path d="M1600 2443 c0 -13 5 -23 10 -23 13 0 13 11 0 30 -8 12 -10 11 -10 -7z"/>
</g>
</svg>
